<svg width="54" height="38" viewBox="0 0 54 38" fill="none" xmlns="http://www.w3.org/2000/svg">
<rect width="54" height="38" rx="8" fill="#4880FF"/>
<path d="M17.888 20.328H23.288C23.024 21.408 22.568 22.32 21.92 22.896C21.032 23.736 19.808 24.312 17.984 24.312C14.816 24.312 12.128 21.984 12.128 18.408C12.128 14.832 14.792 12.504 17.936 12.504C19.856 12.504 21.152 13.152 22.28 14.328L24.512 12.144C22.952 10.44 20.744 9.432 17.96 9.432C12.968 9.432 8.888 13.224 8.888 18.408C8.888 23.592 12.968 27.384 17.96 27.384C20.72 27.384 22.856 26.448 24.392 24.816C25.832 23.28 26.48 21.288 26.48 19.08C26.48 18.528 26.408 17.952 26.312 17.568H17.888V20.328ZM41.8777 22.056C40.7257 23.496 39.2617 24.312 37.3417 24.312C34.1497 24.312 31.5577 21.984 31.5577 18.408C31.5577 14.832 34.1497 12.504 37.3417 12.504C39.1657 12.504 40.4377 13.272 41.4697 14.448L43.7497 12.24C42.1177 10.416 40.0777 9.432 37.3177 9.432C32.2297 9.432 28.3177 13.344 28.3177 18.408C28.3177 23.472 32.2297 27.384 37.3177 27.384C40.1737 27.384 42.4777 26.28 44.1817 24.24L41.8777 22.056Z" fill="white"/>
</svg>
  