<svg width="27" height="26" viewBox="0 0 27 26" fill="none" xmlns="http://www.w3.org/2000/svg">
<circle cx="13.002" cy="13" r="13" fill="#EFF0F4"/>
<path fill-rule="evenodd" clip-rule="evenodd" d="M18.204 7.79808C18.4904 8.08444 18.4904 8.54871 18.204 8.83506L14.0391 13L18.204 17.1649C18.4904 17.4512 18.4904 17.9155 18.204 18.2019C17.9176 18.4882 17.4534 18.4882 17.167 18.2019L13.0021 14.037L8.8372 18.2019C8.55085 18.4882 8.08657 18.4882 7.80022 18.2019C7.51386 17.9155 7.51386 17.4512 7.80022 17.1649L11.9651 13L7.80022 8.83508C7.51386 8.54873 7.51386 8.08445 7.80022 7.7981C8.08657 7.51174 8.55085 7.51174 8.8372 7.7981L13.0021 11.963L17.167 7.79808C17.4534 7.51172 17.9176 7.51172 18.204 7.79808Z" fill="#0B1523"/>
</svg>
