<svg width="36" height="36" viewBox="0 0 36 36" fill="none" xmlns="http://www.w3.org/2000/svg">
<rect width="36" height="36" rx="18" fill="#EFFAED"/>
<path d="M20.0044 21.3774L21.232 20.1498C21.3973 19.9865 21.6065 19.8748 21.8342 19.8281C22.0618 19.7814 22.2981 19.8018 22.5144 19.8868L24.0104 20.4841C24.229 20.5728 24.4164 20.7242 24.549 20.9193C24.6817 21.1143 24.7536 21.3443 24.7557 21.5801V24.3202C24.7545 24.4807 24.7207 24.6392 24.6566 24.7863C24.5924 24.9333 24.4992 25.0659 24.3824 25.176C24.2657 25.2861 24.1279 25.3714 23.9773 25.4268C23.8267 25.4822 23.6665 25.5066 23.5063 25.4985C13.0227 24.8463 10.9074 15.9685 10.5073 12.5707C10.4887 12.4039 10.5057 12.235 10.5571 12.0752C10.6085 11.9154 10.6931 11.7682 10.8055 11.6435C10.9178 11.5187 11.0553 11.4191 11.2088 11.3513C11.3624 11.2835 11.5286 11.249 11.6965 11.25H14.3434C14.5796 11.2507 14.8102 11.3221 15.0055 11.4549C15.2009 11.5877 15.352 11.7759 15.4395 11.9953L16.0368 13.4914C16.1246 13.7068 16.147 13.9433 16.1012 14.1714C16.0554 14.3995 15.9434 14.609 15.7792 14.7738L14.5517 16.0013C14.5517 16.0013 15.2586 20.7855 20.0044 21.3774Z" fill="#5BB74C"/>
</svg>
