<svg width="22" height="22" viewBox="0 0 22 22" fill="none" xmlns="http://www.w3.org/2000/svg">
<path fill-rule="evenodd" clip-rule="evenodd" d="M10.9999 0.999902C11.5522 0.999902 11.9999 1.44762 11.9999 1.9999V9.9999H19.9999C20.5522 9.9999 20.9999 10.4476 20.9999 10.9999C20.9999 11.5522 20.5522 11.9999 19.9999 11.9999H11.9999V19.9999C11.9999 20.5522 11.5522 20.9999 10.9999 20.9999C10.4476 20.9999 9.9999 20.5522 9.9999 19.9999V11.9999H1.9999C1.44762 11.9999 0.999902 11.5522 0.999902 10.9999C0.999902 10.4476 1.44762 9.9999 1.9999 9.9999H9.9999V1.9999C9.9999 1.44762 10.4476 0.999902 10.9999 0.999902Z" fill="#4880FF"/>
<path fill-rule="evenodd" clip-rule="evenodd" d="M10.9999 0.899902C11.6074 0.899902 12.0999 1.39239 12.0999 1.9999V9.8999H19.9999C20.6074 9.8999 21.0999 10.3924 21.0999 10.9999C21.0999 11.6074 20.6074 12.0999 19.9999 12.0999H12.0999V19.9999C12.0999 20.6074 11.6074 21.0999 10.9999 21.0999C10.3924 21.0999 9.8999 20.6074 9.8999 19.9999V12.0999H1.9999C1.39239 12.0999 0.899902 11.6074 0.899902 10.9999C0.899902 10.3924 1.39239 9.8999 1.9999 9.8999H9.8999V1.9999C9.8999 1.39239 10.3924 0.899902 10.9999 0.899902ZM11.9999 1.9999C11.9999 1.44762 11.5522 0.999902 10.9999 0.999902C10.4476 0.999902 9.9999 1.44762 9.9999 1.9999V9.9999H1.9999C1.44762 9.9999 0.999902 10.4476 0.999902 10.9999C0.999902 11.5522 1.44762 11.9999 1.9999 11.9999H9.9999V19.9999C9.9999 20.5522 10.4476 20.9999 10.9999 20.9999C11.5522 20.9999 11.9999 20.5522 11.9999 19.9999V11.9999H19.9999C20.5522 11.9999 20.9999 11.5522 20.9999 10.9999C20.9999 10.4476 20.5522 9.9999 19.9999 9.9999H11.9999V1.9999Z" fill="#4880FF"/>
</svg>
