<svg width="159" height="158" viewBox="0 0 159 158" fill="none" xmlns="http://www.w3.org/2000/svg">
<rect x="0.5" width="158" height="158" rx="79" fill="#EBF0F9"/>
<rect x="29.5" y="29" width="100" height="100" rx="50" fill="#E0E8FA"/>
<path d="M64.6282 61.7321C66.5828 60.638 69.0752 60.3817 71.4578 60.9859C72.6182 61.2789 73.6092 62.0319 74.2042 63.0687L76.2595 66.6528C76.992 67.9306 77.2036 69.4417 76.8502 70.8715C76.4968 72.3013 75.6056 73.5398 74.3622 74.3292L72.5541 75.4781C71.8057 75.9519 71.531 76.6774 71.7027 77.2519C72.316 79.3072 73.6733 81.5868 75.1655 83.1477C75.6095 83.6146 76.4243 83.7244 77.2208 83.2598L78.221 82.6762C78.8772 82.2937 79.6031 82.0456 80.3562 81.9466C81.1094 81.8475 81.8747 81.8994 82.6076 82.0993C83.3404 82.2991 84.0262 82.6429 84.6248 83.1105C85.2234 83.5781 85.7229 84.1603 86.0942 84.823L87.9366 88.1073C88.5385 89.183 88.6369 90.467 88.2112 91.6228C87.3621 93.9184 85.7257 95.77 83.7139 96.6969C81.6701 97.6376 79.2783 97.5987 77.1132 96.1545C73.6847 93.8703 69.5535 90.0253 65.8115 83.6123C62.0213 77.1123 61.0669 71.5804 61.1745 67.4562C61.2432 64.8173 62.6393 62.8444 64.6282 61.7321ZM85.6662 60.8623C85.4009 60.7148 85.0879 60.6787 84.7961 60.762C84.5042 60.8453 84.2574 61.0411 84.1098 61.3063C83.9623 61.5716 83.9263 61.8846 84.0095 62.1765C84.0928 62.4683 84.2886 62.7152 84.5539 62.8627L85.4327 63.3525C88.1783 64.8777 90.5138 67.045 92.2396 69.6691C93.9654 72.2933 95.0302 75.2963 95.3429 78.4214L95.4162 79.1424C95.4248 79.2967 95.4646 79.4477 95.5332 79.5862C95.6017 79.7247 95.6977 79.8478 95.8151 79.9483C95.9326 80.0487 96.0692 80.1243 96.2167 80.1705C96.3642 80.2167 96.5195 80.2325 96.6733 80.217C96.8271 80.2016 96.9761 80.1551 97.1114 80.0805C97.2468 80.0058 97.3656 79.9045 97.4607 79.7827C97.5558 79.6609 97.6253 79.5211 97.6649 79.3717C97.7045 79.2223 97.7134 79.0665 97.6912 78.9135L97.6202 78.1949C97.271 74.7013 96.081 71.3443 94.1519 68.4108C92.2228 65.4773 89.612 63.0546 86.5428 61.3498L85.6662 60.8623ZM82.9838 66.9961C83.1401 66.7361 83.3934 66.5487 83.6878 66.4753C83.9822 66.4019 84.2937 66.4485 84.5539 66.6048L84.8377 66.7741C86.6851 67.8817 88.27 69.3774 89.4828 71.1576C90.6955 72.9378 91.5072 74.9601 91.8618 77.0848L91.9625 77.6959C91.9921 77.8462 91.9913 78.0009 91.9601 78.1509C91.9289 78.3008 91.8679 78.443 91.7807 78.569C91.6935 78.6949 91.5819 78.8021 91.4525 78.8841C91.3232 78.9661 91.1787 79.0213 91.0275 79.0465C90.8764 79.0716 90.7218 79.0661 90.5729 79.0304C90.4239 78.9947 90.2836 78.9294 90.1604 78.8385C90.0371 78.7475 89.9334 78.6328 89.8553 78.501C89.7772 78.3692 89.7264 78.2231 89.7058 78.0713L89.6028 77.4625C89.3036 75.6646 88.6176 73.9531 87.5921 72.4464C86.5667 70.9396 85.2263 69.6735 83.6635 68.7356L83.3797 68.5662C83.2508 68.489 83.1383 68.3871 83.0487 68.2664C82.9591 68.1457 82.8942 68.0085 82.8577 67.8627C82.8211 67.7169 82.8136 67.5653 82.8357 67.4166C82.8577 67.2679 82.9088 67.1251 82.9861 66.9961H82.9838Z" fill="#4880FF"/>
</svg>
