<svg width="164" height="38" viewBox="0 0 164 38" fill="none" xmlns="http://www.w3.org/2000/svg">
<rect width="54" height="38" rx="19" fill="#4880FF"/>
<path d="M17.888 20.328H23.288C23.024 21.408 22.568 22.32 21.92 22.896C21.032 23.736 19.808 24.312 17.984 24.312C14.816 24.312 12.128 21.984 12.128 18.408C12.128 14.832 14.792 12.504 17.936 12.504C19.856 12.504 21.152 13.152 22.28 14.328L24.512 12.144C22.952 10.44 20.744 9.432 17.96 9.432C12.968 9.432 8.888 13.224 8.888 18.408C8.888 23.592 12.968 27.384 17.96 27.384C20.72 27.384 22.856 26.448 24.392 24.816C25.832 23.28 26.48 21.288 26.48 19.08C26.48 18.528 26.408 17.952 26.312 17.568H17.888V20.328ZM41.8777 22.056C40.7257 23.496 39.2617 24.312 37.3417 24.312C34.1497 24.312 31.5577 21.984 31.5577 18.408C31.5577 14.832 34.1497 12.504 37.3417 12.504C39.1657 12.504 40.4377 13.272 41.4697 14.448L43.7497 12.24C42.1177 10.416 40.0777 9.432 37.3177 9.432C32.2297 9.432 28.3177 13.344 28.3177 18.408C28.3177 23.472 32.2297 27.384 37.3177 27.384C40.1737 27.384 42.4777 26.28 44.1817 24.24L41.8777 22.056Z" fill="white"/>
<path d="M79.184 21.104H86.384C86.032 22.544 85.424 23.76 84.56 24.528C83.376 25.648 81.744 26.416 79.312 26.416C75.088 26.416 71.504 23.312 71.504 18.544C71.504 13.776 75.056 10.672 79.248 10.672C81.808 10.672 83.536 11.536 85.04 13.104L88.016 10.192C85.936 7.92 82.992 6.576 79.28 6.576C72.624 6.576 67.184 11.632 67.184 18.544C67.184 25.456 72.624 30.512 79.28 30.512C82.96 30.512 85.808 29.264 87.856 27.088C89.776 25.04 90.64 22.384 90.64 19.44C90.64 18.704 90.544 17.936 90.416 17.424H79.184V21.104ZM100.966 13.808C96.134 13.808 92.646 17.296 92.646 22.16C92.646 27.024 96.134 30.512 100.966 30.512C105.798 30.512 109.286 27.024 109.286 22.16C109.286 17.296 105.798 13.808 100.966 13.808ZM100.966 26.64C98.79 26.64 96.838 24.976 96.838 22.16C96.838 19.344 98.79 17.68 100.966 17.68C103.142 17.68 105.094 19.344 105.094 22.16C105.094 24.976 103.142 26.64 100.966 26.64ZM129.452 23.408C127.916 25.328 125.964 26.416 123.404 26.416C119.148 26.416 115.692 23.312 115.692 18.544C115.692 13.776 119.148 10.672 123.404 10.672C125.836 10.672 127.532 11.696 128.908 13.264L131.948 10.32C129.772 7.888 127.052 6.576 123.372 6.576C116.588 6.576 111.372 11.792 111.372 18.544C111.372 25.296 116.588 30.512 123.372 30.512C127.18 30.512 130.252 29.04 132.524 26.32L129.452 23.408ZM144.519 30H148.647V20.592C148.647 16.112 146.023 13.808 141.159 13.808C138.279 13.808 136.007 14.864 134.343 16.944L137.383 19.024C138.375 17.808 139.623 17.2 141.062 17.2C143.015 17.2 144.519 18.416 144.519 20.08V20.56C143.655 20.208 142.407 19.824 140.359 19.824C136.679 19.824 133.959 21.904 133.959 25.136C133.959 28.304 136.551 30.512 139.815 30.512C141.991 30.512 143.271 29.52 144.263 28.336H144.519V30ZM144.519 23.632C144.519 25.52 142.983 27.248 140.743 27.248C139.367 27.248 138.151 26.416 138.151 25.136C138.151 23.856 139.271 22.864 141.286 22.864C142.535 22.864 143.527 23.152 144.519 23.632ZM156.172 30V7.088H151.98V30H156.172ZM163.953 30V7.088H159.761V30H163.953Z" fill="#131935"/>
</svg>
