<svg width="24" height="20" viewBox="0 0 24 20" fill="none" xmlns="http://www.w3.org/2000/svg">
<path fill-rule="evenodd" clip-rule="evenodd" d="M4.97258 0.292893C5.3631 -0.0976311 5.99627 -0.0976311 6.38679 0.292893L22.3868 16.2929C22.7773 16.6834 22.7773 17.3166 22.3868 17.7071C21.9963 18.0976 21.3631 18.0976 20.9726 17.7071L19.6371 16.3716C17.4071 18.3594 14.6673 19.5564 11.6798 19.5564C6.99415 19.5564 2.94527 16.6255 0.467746 12.3103C-0.155911 11.2241 -0.155916 9.88873 0.467735 8.80249C1.9169 6.2784 3.89629 4.23358 6.23172 2.96625L4.97258 1.70711C4.58206 1.31658 4.58206 0.683417 4.97258 0.292893ZM7.71964 4.45417C5.53869 5.47785 3.61452 7.33839 2.2022 9.7983C1.9326 10.2679 1.9326 10.8449 2.2022 11.3145C4.42466 15.1854 7.89339 17.5564 11.6798 17.5564C14.0689 17.5564 16.3204 16.6177 18.2203 14.9548L15.3686 12.1031C15.3672 12.1062 15.3659 12.1094 15.3646 12.1125C15.0267 12.9127 14.4375 13.5812 13.686 14.0169C12.9345 14.4525 12.0616 14.6318 11.1993 14.5274C10.3369 14.4231 9.53199 14.0409 8.90609 13.4386C8.28019 12.8363 7.86737 12.0466 7.73001 11.1889C7.59266 10.3312 7.73824 9.45209 8.14475 8.68445C8.55126 7.9168 9.19661 7.30235 9.98325 6.93395C10.0328 6.91075 10.0827 6.88861 10.133 6.86753L7.71964 4.45417ZM11.8273 8.56185C11.4866 8.53663 11.1435 8.59903 10.8315 8.74517C10.4381 8.92937 10.1155 9.2366 9.91222 9.62042C9.70896 10.0042 9.63617 10.4438 9.70485 10.8727C9.77353 11.3015 9.97994 11.6964 10.2929 11.9975C10.6058 12.2987 11.0083 12.4898 11.4395 12.5419C11.8707 12.5941 12.3071 12.5045 12.6828 12.2866C13.0586 12.0688 13.3532 11.7345 13.5221 11.3344C13.6461 11.0408 13.6975 10.7234 13.6742 10.4088L11.8273 8.56185ZM14.0546 2.79031C14.2347 2.2682 14.8039 1.99091 15.326 2.17097C18.4478 3.24756 21.0834 5.65274 22.8918 8.80239C23.3668 9.62971 23.4799 10.6014 23.2316 11.4974C23.084 12.0296 22.533 12.3414 22.0007 12.1939C21.4685 12.0463 21.1567 11.4953 21.3042 10.963C21.4117 10.5756 21.3626 10.1557 21.1573 9.79822C19.5394 6.98022 17.2514 4.95054 14.674 4.0617C14.1519 3.88164 13.8746 3.31242 14.0546 2.79031Z" fill="#878D99"/>
</svg>
