<svg width="20" height="20" viewBox="0 0 20 20" fill="none" xmlns="http://www.w3.org/2000/svg">
<path fill-rule="evenodd" clip-rule="evenodd" d="M10 1.66667C5.39763 1.66667 1.66667 5.39763 1.66667 10C1.66667 14.6024 5.39763 18.3333 10 18.3333C14.6024 18.3333 18.3333 14.6024 18.3333 10C18.3333 5.39763 14.6024 1.66667 10 1.66667ZM0 10C0 4.47715 4.47715 0 10 0C15.5228 0 20 4.47715 20 10C20 15.5228 15.5228 20 10 20C4.47715 20 0 15.5228 0 10ZM10 5C10.4602 5 10.8333 5.3731 10.8333 5.83333V10.4882L12.6726 12.3274C12.998 12.6528 12.998 13.1805 12.6726 13.5059C12.3472 13.8314 11.8195 13.8314 11.4941 13.5059L9.41074 11.4226C9.25446 11.2663 9.16667 11.0543 9.16667 10.8333V5.83333C9.16667 5.3731 9.53976 5 10 5Z" fill="#878D99"/>
</svg>
