<svg width="32" height="32" viewBox="0 0 32 32" fill="none" xmlns="http://www.w3.org/2000/svg">
<path d="M25.5698 15.1233H23.898C23.898 16.6279 23.4801 18.0489 22.7278 19.3027L23.9816 20.5565C24.9847 18.8848 25.4862 17.0458 25.5698 15.1233Z" fill="white"/>
<path d="M21.3905 15.1234V8.4363C21.3905 5.17636 18.7156 2.58513 15.4557 2.66871C13.0316 2.66871 10.7748 4.25689 10.0225 6.59736L20.8889 17.4638C21.2233 16.7115 21.3905 15.8756 21.3905 15.1234Z" fill="white"/>
<path d="M21.5576 23.1478L27.3251 28.9154L28.4954 27.7452L3.83686 3.08667L2.66663 4.2569L9.68803 11.2783V15.1234C9.68803 18.3833 12.2793 20.9745 15.5392 20.9745C16.6258 20.9745 17.6289 20.7238 18.5484 20.1387L20.3873 21.9776C18.9663 22.9807 17.2946 23.4822 15.5392 23.4822C11.0254 23.6494 7.34756 20.0551 7.18039 15.6249V15.1234H5.50862C5.59221 20.3058 9.52086 24.6524 14.7033 25.1539V27.6616H12.1957C11.6941 27.6616 11.3598 27.9959 11.3598 28.4975C11.3598 28.999 11.6941 29.3334 12.1957 29.3334H18.8827C19.3843 29.3334 19.7186 28.999 19.7186 28.4975C19.7186 27.9959 19.3843 27.6616 18.8827 27.6616H16.3751V25.1539C18.214 24.9868 20.053 24.3181 21.5576 23.1478Z" fill="white"/>
</svg>
