<svg width="20" height="19" viewBox="0 0 20 19" fill="none" xmlns="http://www.w3.org/2000/svg">
<path d="M12.6726 13.5032L14.3093 11.8664C14.5298 11.6487 14.8087 11.4997 15.1122 11.4374C15.4157 11.3752 15.7308 11.4024 16.0191 11.5157L18.0139 12.3121C18.3053 12.4304 18.5552 12.6323 18.732 12.8924C18.9089 13.1525 19.0048 13.459 19.0077 13.7735V17.427C19.006 17.6409 18.961 17.8523 18.8755 18.0484C18.7899 18.2445 18.6656 18.4212 18.5099 18.568C18.3543 18.7148 18.1705 18.8285 17.9698 18.9024C17.769 18.9763 17.5553 19.0088 17.3417 18.998C3.3636 18.1284 0.543134 6.29127 0.00973094 1.76099C-0.01503 1.53852 0.0075934 1.31333 0.0761128 1.10024C0.144632 0.887139 0.257495 0.690964 0.407275 0.524618C0.557056 0.358272 0.74036 0.225524 0.945129 0.135108C1.1499 0.0446917 1.37149 -0.00134385 1.59533 2.98626e-05H5.12456C5.43949 0.000962066 5.74695 0.0960917 6.00737 0.273183C6.2678 0.450274 6.4693 0.701229 6.58594 0.993768L7.38239 2.98855C7.49948 3.27576 7.52936 3.59111 7.46828 3.8952C7.4072 4.19929 7.25788 4.47864 7.03896 4.69836L5.40222 6.33511C5.40222 6.33511 6.34481 12.714 12.6726 13.5032Z" fill="#85899D"/>
</svg>
