<svg width="21" height="20" viewBox="0 0 21 20" fill="none" xmlns="http://www.w3.org/2000/svg">
<path fill-rule="evenodd" clip-rule="evenodd" d="M9.19267 16.8371C13.4146 16.8371 16.8371 13.4146 16.8371 9.19267C16.8371 4.97077 13.4146 1.54824 9.19267 1.54824C4.97077 1.54824 1.54824 4.97077 1.54824 9.19267C1.54824 13.4146 4.97077 16.8371 9.19267 16.8371ZM9.19267 18.3853C14.2696 18.3853 18.3853 14.2696 18.3853 9.19267C18.3853 4.1157 14.2696 0 9.19267 0C4.1157 0 0 4.1157 0 9.19267C0 14.2696 4.1157 18.3853 9.19267 18.3853Z" fill="#0B1523"/>
<path fill-rule="evenodd" clip-rule="evenodd" d="M15.0622 14.935C15.3645 14.6327 15.8546 14.6327 16.1569 14.935L19.9004 18.6785C20.2027 18.9808 20.2027 19.471 19.9004 19.7733C19.5981 20.0756 19.1079 20.0756 18.8056 19.7733L15.0622 16.0298C14.7598 15.7275 14.7598 15.2373 15.0622 14.935Z" fill="#0B1523"/>
</svg>
