<svg width="22" height="22" viewBox="0 0 22 22" fill="none" xmlns="http://www.w3.org/2000/svg">
<path fill-rule="evenodd" clip-rule="evenodd" d="M8.66234 1.32443C9.72053 -0.441479 12.2795 -0.441474 13.3377 1.32443L13.9788 2.39433C14.1845 2.73761 14.5906 2.90584 14.9788 2.80856L16.1887 2.50536C18.1856 2.00493 19.9951 3.81438 19.4946 5.81131L19.1914 7.02119C19.0942 7.40938 19.2624 7.81551 19.6057 8.02122L20.6756 8.66234C22.4415 9.72053 22.4415 12.2795 20.6756 13.3377L19.6057 13.9788C19.2624 14.1845 19.0942 14.5906 19.1914 14.9788L19.4946 16.1887C19.9951 18.1856 18.1856 19.9951 16.1887 19.4946L14.9788 19.1914C14.5906 19.0942 14.1845 19.2624 13.9788 19.6057L13.3377 20.6756C12.2795 22.4415 9.72053 22.4415 8.66234 20.6756L8.02122 19.6057C7.81551 19.2624 7.40938 19.0942 7.02118 19.1914L6.80037 18.3103L7.02118 19.1914L5.81131 19.4946C3.81437 19.9951 2.00493 18.1856 2.50536 16.1887L2.80856 14.9788C2.90584 14.5906 2.73761 14.1845 2.39433 13.9788L1.32443 13.3377C-0.441479 12.2795 -0.441474 9.72053 1.32443 8.66234L2.39433 8.02122C2.73761 7.81551 2.90584 7.40938 2.80856 7.02118L2.50536 5.81131C2.00493 3.81437 3.81438 2.00493 5.81131 2.50536L7.02118 2.80856C7.40938 2.90584 7.81551 2.73761 8.02122 2.39433L8.66234 1.32443ZM11.7792 2.2583C11.4265 1.66966 10.5735 1.66967 10.2208 2.2583L9.57966 3.3282C8.96253 4.35806 7.74414 4.86273 6.57955 4.57089L5.36968 4.26769C4.70403 4.10088 4.10088 4.70403 4.26769 5.36967L4.57088 6.57955C4.86273 7.74414 4.35806 8.96253 3.3282 9.57966L2.2583 10.2208C1.66966 10.5735 1.66967 11.4265 2.2583 11.7792L3.3282 12.4203C4.35806 13.0375 4.86273 14.2559 4.57089 15.4205L4.26769 16.6303C4.10088 17.296 4.70403 17.8991 5.36967 17.7323L5.59049 18.6135L5.36968 17.7323L6.57955 17.4291C7.74414 17.1373 8.96253 17.6419 9.57966 18.6718L10.2208 19.7417C10.5735 20.3303 11.4265 20.3303 11.7792 19.7417L12.4203 18.6718C13.0375 17.6419 14.2559 17.1373 15.4205 17.4291L16.6303 17.7323C17.296 17.8991 17.8991 17.296 17.7323 16.6303L17.4291 15.4205C17.1373 14.2559 17.6419 13.0375 18.6718 12.4203L19.7417 11.7792C20.3303 11.4265 20.3303 10.5735 19.7417 10.2208L18.6718 9.57966C17.6419 8.96253 17.1373 7.74414 17.4291 6.57955L17.7323 5.36968C17.8991 4.70403 17.296 4.10088 16.6303 4.26769L15.4205 4.57088C14.2559 4.86273 13.0375 4.35806 12.4203 3.3282L11.7792 2.2583ZM11 8.27477C9.49489 8.27477 8.27477 9.49489 8.27477 11C8.27477 12.5051 9.49489 13.7252 11 13.7252C12.5051 13.7252 13.7252 12.5051 13.7252 11C13.7252 9.49489 12.5051 8.27477 11 8.27477ZM6.45794 11C6.45794 8.49149 8.49149 6.45794 11 6.45794C13.5085 6.45794 15.5421 8.49149 15.5421 11C15.5421 13.5085 13.5085 15.5421 11 15.5421C8.49149 15.5421 6.45794 13.5085 6.45794 11Z" fill="#878D99"/>
</svg>
