<svg width="22" height="20" viewBox="0 0 22 20" fill="none" xmlns="http://www.w3.org/2000/svg">
<path fill-rule="evenodd" clip-rule="evenodd" d="M0 0.909091C0 0.407014 0.407014 0 0.909091 0H3.08696C4.36523 0 5.47199 0.887815 5.74929 2.13564L6.18379 4.09091H19.2008C20.6592 4.09091 21.7402 5.44513 21.417 6.86732L20.4878 10.9558C19.8293 13.8531 17.2536 15.9091 14.2824 15.9091H11.825C8.7495 15.9091 6.11413 13.7097 5.56397 10.6838L4.56327 5.17999L3.9744 2.53006C3.88197 2.11412 3.51305 1.81818 3.08696 1.81818H0.909091C0.407014 1.81818 0 1.41117 0 0.909091ZM6.54383 5.90909L7.35283 10.3586C7.74579 12.5199 9.62821 14.0909 11.825 14.0909H14.2824C16.4047 14.0909 18.2445 12.6223 18.7148 10.5528L19.644 6.46437C19.7086 6.17994 19.4925 5.90909 19.2008 5.90909H6.54383ZM5.90909 18.1818C5.90909 17.1777 6.72312 16.3636 7.72727 16.3636C8.73143 16.3636 9.54545 17.1777 9.54545 18.1818C9.54545 19.186 8.73143 20 7.72727 20C6.72312 20 5.90909 19.186 5.90909 18.1818ZM16.8182 18.1818C16.8182 17.1777 17.6322 16.3636 18.6364 16.3636C19.6405 16.3636 20.4545 17.1777 20.4545 18.1818C20.4545 19.186 19.6405 20 18.6364 20C17.6322 20 16.8182 19.186 16.8182 18.1818Z" fill="#878D99"/>
</svg>
