<svg width="19" height="18" viewBox="0 0 19 18" fill="none" xmlns="http://www.w3.org/2000/svg">
<path fill-rule="evenodd" clip-rule="evenodd" d="M0 14C0 13.4477 0.447715 13 1 13H11C11.5523 13 12 13.4477 12 14C12 14.5523 11.5523 15 11 15H1C0.447715 15 0 14.5523 0 14Z" fill="#878D99"/>
<path fill-rule="evenodd" clip-rule="evenodd" d="M7 4C7 3.44772 7.44772 3 8 3H18C18.5523 3 19 3.44772 19 4C19 4.55228 18.5523 5 18 5H8C7.44772 5 7 4.55228 7 4Z" fill="#878D99"/>
<path fill-rule="evenodd" clip-rule="evenodd" d="M15 16C16.1046 16 17 15.1046 17 14C17 12.8954 16.1046 12 15 12C13.8954 12 13 12.8954 13 14C13 15.1046 13.8954 16 15 16ZM15 18C17.2091 18 19 16.2091 19 14C19 11.7909 17.2091 10 15 10C12.7909 10 11 11.7909 11 14C11 16.2091 12.7909 18 15 18Z" fill="#878D99"/>
<path fill-rule="evenodd" clip-rule="evenodd" d="M4 6C5.10457 6 6 5.10457 6 4C6 2.89543 5.10457 2 4 2C2.89543 2 2 2.89543 2 4C2 5.10457 2.89543 6 4 6ZM4 8C6.20914 8 8 6.20914 8 4C8 1.79086 6.20914 0 4 0C1.79086 0 0 1.79086 0 4C0 6.20914 1.79086 8 4 8Z" fill="#878D99"/>
</svg>
