<svg width="20" height="20" viewBox="0 0 20 20" fill="none" xmlns="http://www.w3.org/2000/svg">
<path d="M18.2775 1.63933C18.8926 2.25441 19.2381 3.08864 19.2381 3.95849C19.2381 4.82835 18.8926 5.66257 18.2775 6.27766L7.30683 17.2502C7.05305 17.5041 6.73739 17.6873 6.39107 17.7818L1.70141 19.0606C1.58452 19.0923 1.46134 19.0926 1.34431 19.0614C1.22729 19.0302 1.12058 18.9686 1.03499 18.8829C0.949402 18.7973 0.887964 18.6905 0.856897 18.5734C0.82583 18.4564 0.826236 18.3332 0.858075 18.2163L2.13682 13.5267C2.23133 13.1803 2.4146 12.8647 2.66849 12.6109L13.6392 1.63933C14.2542 1.02425 15.0885 0.678711 15.9583 0.678711C16.8282 0.678711 17.6624 1.02425 18.2775 1.63933ZM12.75 4.47183L3.64016 13.5835C3.55564 13.6681 3.49466 13.7733 3.46324 13.8887L2.50074 17.4179L6.02991 16.4554C6.14485 16.4232 6.24942 16.3616 6.33332 16.2767L15.445 7.16683L12.75 4.47183ZM14.6108 2.61099L13.7217 3.50016L16.4167 6.19516L17.3058 5.30599C17.6573 4.94739 17.853 4.46458 17.8504 3.96248C17.8479 3.46038 17.6473 2.97958 17.2923 2.62454C16.9372 2.2695 16.4564 2.06891 15.9543 2.06638C15.4522 2.06384 14.9694 2.25956 14.6108 2.61099Z" fill="#545B7B"/>
</svg>
