<svg width="79" height="79" viewBox="0 0 79 79" fill="none" xmlns="http://www.w3.org/2000/svg">
<rect width="79" height="79" fill="white"/>
<circle cx="40.0024" cy="39" r="16" fill="#EFF0F4"/>
<path fill-rule="evenodd" clip-rule="evenodd" d="M46.4047 32.5977C46.7571 32.9501 46.7571 33.5215 46.4047 33.8739L41.2786 39L46.4047 44.126C46.7571 44.4785 46.7571 45.0499 46.4047 45.4023C46.0522 45.7548 45.4808 45.7548 45.1284 45.4023L40.0023 40.2763L34.8763 45.4023C34.5239 45.7547 33.9525 45.7547 33.6 45.4023C33.2476 45.0499 33.2476 44.4785 33.6 44.126L38.726 39L33.6 33.874C33.2476 33.5215 33.2476 32.9501 33.6 32.5977C33.9525 32.2452 34.5239 32.2452 34.8763 32.5977L40.0023 37.7237L45.1284 32.5977C45.4808 32.2452 46.0522 32.2452 46.4047 32.5977Z" fill="#0B1523"/>
</svg>
