<svg width="24" height="19" viewBox="0 0 24 19" fill="none" xmlns="http://www.w3.org/2000/svg">
<path fill-rule="evenodd" clip-rule="evenodd" d="M11.6798 2.55005C7.8934 2.55005 4.42466 4.92106 2.2022 8.79203C1.9326 9.2616 1.9326 9.83863 2.2022 10.3082C4.42466 14.1791 7.89339 16.5501 11.6798 16.5501C15.4661 16.5501 18.9349 14.1791 21.1574 10.3081C21.4269 9.83854 21.4269 9.26151 21.1573 8.79195C18.9349 4.92102 15.4662 2.55005 11.6798 2.55005ZM0.467735 7.79621C2.94526 3.48099 6.99416 0.550049 11.6798 0.550049C16.3654 0.550049 20.4143 3.48095 22.8918 7.79612C23.5155 8.88236 23.5155 10.2177 22.8918 11.3039C20.4143 15.6192 16.3654 18.5501 11.6798 18.5501C6.99415 18.5501 2.94527 15.6192 0.467746 11.304C-0.155911 10.2178 -0.155916 8.88246 0.467735 7.79621ZM11.6797 7.55005C10.5751 7.55005 9.67969 8.44548 9.67969 9.55005C9.67969 10.6546 10.5751 11.55 11.6797 11.55C12.7843 11.55 13.6797 10.6546 13.6797 9.55005C13.6797 8.44548 12.7843 7.55005 11.6797 7.55005ZM7.67969 9.55005C7.67969 7.34091 9.47055 5.55005 11.6797 5.55005C13.8888 5.55005 15.6797 7.34091 15.6797 9.55005C15.6797 11.7592 13.8888 13.55 11.6797 13.55C9.47055 13.55 7.67969 11.7592 7.67969 9.55005Z" fill="#878D99"/>
</svg>
