<svg width="21" height="21" viewBox="0 0 21 21" fill="none" xmlns="http://www.w3.org/2000/svg">
<path fill-rule="evenodd" clip-rule="evenodd" d="M12.2814 1.37643C12.8216 0.430799 13.872 -0.1035 14.9544 0.0167665L18.1115 0.367556C19.3559 0.505824 20.4776 1.54076 20.3266 2.97957C20.0851 5.28052 18.9599 9.65659 14.3089 14.3076C9.65791 18.9586 5.28132 20.0844 2.98007 20.3263C1.54109 20.4775 0.505811 19.3558 0.367516 18.1112L0.0167664 14.9544C-0.1035 13.872 0.430799 12.8216 1.37643 12.2814L3.63785 10.9895C4.70713 10.3787 6.05295 10.559 6.92373 11.4298L7.50388 12.0099C7.73304 12.2391 7.95144 12.2397 8.0714 12.1829C8.63485 11.916 9.48966 11.4022 10.4459 10.4459C11.4022 9.48966 11.916 8.63484 12.1829 8.0714C12.2397 7.95144 12.2391 7.73304 12.0099 7.50389L11.4298 6.92373C10.559 6.05295 10.3787 4.70713 10.9895 3.63785L12.2814 1.37643ZM14.7534 1.82635C14.3926 1.78626 14.0424 1.96436 13.8624 2.27957L13.092 1.8395L13.8624 2.27957L12.5705 4.54099C12.3669 4.89742 12.427 5.34603 12.7172 5.63628L13.2974 6.21644C13.9291 6.84821 14.2928 7.87049 13.8284 8.85085C13.4777 9.59115 12.8461 10.6206 11.7334 11.7334C10.6206 12.8461 9.59115 13.4777 8.85085 13.8284C7.87049 14.2928 6.84821 13.9291 6.21644 13.2974L5.63628 12.7172C5.34603 12.427 4.89742 12.3669 4.54099 12.5705L2.27957 13.8624C1.96436 14.0424 1.78626 14.3926 1.82635 14.7534L2.1771 17.9101C2.20097 18.125 2.29547 18.2908 2.40643 18.391C2.51045 18.485 2.63685 18.5316 2.78976 18.5155C4.72368 18.3123 8.69754 17.3441 13.0214 13.0202C17.3454 8.69625 18.3129 4.72299 18.5158 2.78955C18.5318 2.63671 18.4852 2.51037 18.3913 2.4064C18.2911 2.29548 18.1253 2.20101 17.9105 2.17714L14.7534 1.82635Z" fill="#878D99"/>
</svg>
