<svg width="17" height="20" viewBox="0 0 17 20" fill="none" xmlns="http://www.w3.org/2000/svg">
<path d="M2.5 0C1.83696 0 1.20107 0.263392 0.732233 0.732233C0.263392 1.20107 0 1.83696 0 2.5V17.5C0 18.163 0.263392 18.7989 0.732233 19.2678C1.20107 19.7366 1.83696 20 2.5 20H15.75C15.9489 20 16.1397 19.921 16.2803 19.7803C16.421 19.6397 16.5 19.4489 16.5 19.25C16.5 19.0511 16.421 18.8603 16.2803 18.7197C16.1397 18.579 15.9489 18.5 15.75 18.5H2.5C2.23478 18.5 1.98043 18.3946 1.79289 18.2071C1.60536 18.0196 1.5 17.7652 1.5 17.5H15.75C15.9489 17.5 16.1397 17.421 16.2803 17.2803C16.421 17.1397 16.5 16.9489 16.5 16.75V2.5C16.5 2.1717 16.4353 1.84661 16.3097 1.54329C16.1841 1.23998 15.9999 0.964379 15.7678 0.732233C15.5356 0.500087 15.26 0.315938 14.9567 0.190301C14.6534 0.0646644 14.3283 0 14 0H2.5ZM11.5 10.25V10.75C11.5 11.75 10.117 12.5 8.25 12.5C6.383 12.5 5 11.75 5 10.75V10.25C5 10.0511 5.07902 9.86032 5.21967 9.71967C5.36032 9.57902 5.55109 9.5 5.75 9.5H10.75C10.9489 9.5 11.1397 9.57902 11.2803 9.71967C11.421 9.86032 11.5 10.0511 11.5 10.25ZM10 6.745C10 7.20913 9.81563 7.65425 9.48744 7.98244C9.15925 8.31063 8.71413 8.495 8.25 8.495C7.78587 8.495 7.34075 8.31063 7.01256 7.98244C6.68437 7.65425 6.5 7.20913 6.5 6.745C6.5 5.78 7.283 5 8.25 5C9.217 5 10 5.779 10 6.745Z" fill="#85899D"/>
</svg>
