<svg width="27" height="28" viewBox="0 0 27 28" fill="none" xmlns="http://www.w3.org/2000/svg">
<path d="M13.9995 6.46254C13.231 6.46254 12.4939 6.15723 11.9504 5.61377C11.4069 5.07031 11.1016 4.33322 11.1016 3.56465C11.1016 2.79608 11.4069 2.05898 11.9504 1.51552C12.4939 0.972061 13.231 0.666748 13.9995 0.666748C14.7681 0.666748 15.5052 0.972061 16.0486 1.51552C16.5921 2.05898 16.8974 2.79608 16.8974 3.56465C16.8974 4.33322 16.5921 5.07031 16.0486 5.61377C15.5052 6.15723 14.7681 6.46254 13.9995 6.46254ZM23.5655 6.46254C22.7969 6.46254 22.0598 6.15723 21.5164 5.61377C20.9729 5.07031 20.6676 4.33322 20.6676 3.56465C20.6676 2.79608 20.9729 2.05898 21.5164 1.51552C22.0598 0.972061 22.7969 0.666748 23.5655 0.666748C24.334 0.666748 25.0711 0.972061 25.6146 1.51552C26.1581 2.05898 26.4634 2.79608 26.4634 3.56465C26.4634 4.33322 26.1581 5.07031 25.6146 5.61377C25.0711 6.15723 24.334 6.46254 23.5655 6.46254ZM3.56465 6.46254C2.79608 6.46254 2.05898 6.15723 1.51552 5.61377C0.972062 5.07031 0.666748 4.33322 0.666748 3.56465C0.666748 2.79608 0.972062 2.05898 1.51552 1.51552C2.05898 0.972061 2.79608 0.666748 3.56465 0.666748C4.33322 0.666748 5.07031 0.972061 5.61377 1.51552C6.15723 2.05898 6.46254 2.79608 6.46254 3.56465C6.46254 4.33322 6.15723 5.07031 5.61377 5.61377C5.07031 6.15723 4.33322 6.46254 3.56465 6.46254ZM13.9995 16.8974C13.619 16.8974 13.2421 16.8225 12.8905 16.6768C12.539 16.5312 12.2195 16.3177 11.9504 16.0486C11.6813 15.7796 11.4678 15.4601 11.3222 15.1085C11.1766 14.7569 11.1016 14.3801 11.1016 13.9995C11.1016 13.619 11.1766 13.2421 11.3222 12.8905C11.4678 12.539 11.6813 12.2195 11.9504 11.9504C12.2195 11.6813 12.539 11.4678 12.8905 11.3222C13.2421 11.1766 13.619 11.1016 13.9995 11.1016C14.7681 11.1016 15.5052 11.4069 16.0486 11.9504C16.5921 12.4939 16.8974 13.231 16.8974 13.9995C16.8974 14.7681 16.5921 15.5052 16.0486 16.0486C15.5052 16.5921 14.7681 16.8974 13.9995 16.8974ZM23.5655 16.8974C23.1849 16.8974 22.8081 16.8225 22.4565 16.6768C22.1049 16.5312 21.7854 16.3177 21.5164 16.0486C21.2473 15.7796 21.0338 15.4601 20.8882 15.1085C20.7425 14.7569 20.6676 14.3801 20.6676 13.9995C20.6676 13.619 20.7425 13.2421 20.8882 12.8905C21.0338 12.539 21.2473 12.2195 21.5164 11.9504C21.7854 11.6813 22.1049 11.4678 22.4565 11.3222C22.8081 11.1766 23.1849 11.1016 23.5655 11.1016C24.334 11.1016 25.0711 11.4069 25.6146 11.9504C26.1581 12.4939 26.4634 13.231 26.4634 13.9995C26.4634 14.7681 26.1581 15.5052 25.6146 16.0486C25.0711 16.5921 24.334 16.8974 23.5655 16.8974ZM3.56465 16.8974C3.18409 16.8974 2.80726 16.8225 2.45567 16.6768C2.10408 16.5312 1.78462 16.3177 1.51552 16.0486C1.24643 15.7796 1.03297 15.4601 0.887337 15.1085C0.741704 14.7569 0.666748 14.3801 0.666748 13.9995C0.666748 13.619 0.741704 13.2421 0.887337 12.8905C1.03297 12.539 1.24643 12.2195 1.51552 11.9504C1.78462 11.6813 2.10408 11.4678 2.45567 11.3222C2.80726 11.1766 3.18409 11.1016 3.56465 11.1016C4.33322 11.1016 5.07031 11.4069 5.61377 11.9504C6.15723 12.4939 6.46254 13.231 6.46254 13.9995C6.46254 14.7681 6.15723 15.5052 5.61377 16.0486C5.07031 16.5921 4.33322 16.8974 3.56465 16.8974ZM13.9995 27.3323C13.619 27.3323 13.2421 27.2573 12.8905 27.1117C12.539 26.9661 12.2195 26.7526 11.9504 26.4835C11.6813 26.2144 11.4678 25.895 11.3222 25.5434C11.1766 25.1918 11.1016 24.815 11.1016 24.4344C11.1016 24.0538 11.1766 23.677 11.3222 23.3254C11.4678 22.9738 11.6813 22.6544 11.9504 22.3853C12.2195 22.1162 12.539 21.9027 12.8905 21.7571C13.2421 21.6115 13.619 21.5365 13.9995 21.5365C14.7682 21.5365 15.5055 21.8419 16.049 22.3854C16.5926 22.929 16.898 23.6662 16.898 24.435C16.898 25.2037 16.5926 25.9409 16.049 26.4845C15.5055 27.028 14.7682 27.3334 13.9995 27.3334V27.3323ZM23.5655 27.3323C23.1849 27.3323 22.8081 27.2573 22.4565 27.1117C22.1049 26.9661 21.7854 26.7526 21.5164 26.4835C21.2473 26.2144 21.0338 25.895 20.8882 25.5434C20.7425 25.1918 20.6676 24.815 20.6676 24.4344C20.6676 24.0538 20.7425 23.677 20.8882 23.3254C21.0338 22.9738 21.2473 22.6544 21.5164 22.3853C21.7854 22.1162 22.1049 21.9027 22.4565 21.7571C22.8081 21.6115 23.1849 21.5365 23.5655 21.5365C24.334 21.5365 25.0711 21.8418 25.6146 22.3853C26.1581 22.9287 26.4634 23.6658 26.4634 24.4344C26.4634 25.203 26.1581 25.9401 25.6146 26.4835C25.0711 27.027 24.334 27.3323 23.5655 27.3323ZM3.56465 27.3323C3.18409 27.3323 2.80726 27.2573 2.45567 27.1117C2.10408 26.9661 1.78462 26.7526 1.51552 26.4835C1.24643 26.2144 1.03297 25.895 0.887337 25.5434C0.741704 25.1918 0.666748 24.815 0.666748 24.4344C0.666748 24.0538 0.741704 23.677 0.887337 23.3254C1.03297 22.9738 1.24643 22.6544 1.51552 22.3853C1.78462 22.1162 2.10408 21.9027 2.45567 21.7571C2.80726 21.6115 3.18409 21.5365 3.56465 21.5365C4.33322 21.5365 5.07031 21.8418 5.61377 22.3853C6.15723 22.9287 6.46254 23.6658 6.46254 24.4344C6.46254 25.203 6.15723 25.9401 5.61377 26.4835C5.07031 27.027 4.33322 27.3323 3.56465 27.3323Z" fill="white"/>
</svg>
