<svg width="22" height="22" viewBox="0 0 22 22" fill="none" xmlns="http://www.w3.org/2000/svg">
<g clip-path="url(#clip0_618_5877)">
<path d="M17.6605 14.2945L17.6605 14.2945C17.9045 14.3353 18.1548 14.2814 18.3605 14.144C18.5661 14.0065 18.7115 13.7957 18.7671 13.5547L19.1209 12.021L19.1697 12.0322L19.1209 12.021C19.3881 10.8631 18.9405 9.76097 17.9919 9.30737C16.4028 8.54744 13.8887 7.68216 10.694 7.69276C7.50968 7.70335 5.00189 8.55891 3.41027 9.31155L3.41024 9.31156C2.45277 9.76363 1.99794 10.873 2.2667 12.0373L2.61724 13.5547L2.61724 13.5547C2.67282 13.7956 2.81815 14.0062 3.02361 14.1437C3.22907 14.2811 3.4792 14.3351 3.72305 14.2945C3.72305 14.2945 3.72306 14.2945 3.72306 14.2945L6.29448 13.8664L6.29456 13.8663C6.40535 13.8481 6.50814 13.7971 6.58971 13.7199C6.67128 13.6428 6.72791 13.543 6.75232 13.4334L17.6605 14.2945ZM17.6605 14.2945L15.0891 13.8664C14.9784 13.8479 14.8758 13.7969 14.7944 13.7197C14.7129 13.6426 14.6564 13.5429 14.6321 13.4334L13.9947 10.5629L13.9947 10.5628C13.9698 10.4512 13.9164 10.3479 13.8397 10.2631C13.7743 10.1906 13.6938 10.1337 13.6041 10.0961L13.6108 10.0759H13.5504L13.5376 10.0714L13.5377 10.0714L13.5356 10.0708C13.5295 10.0689 13.5235 10.0671 13.5175 10.0653L13.5098 10.0627L13.5097 10.0629C13.2406 9.98178 12.9682 9.91207 12.6931 9.85398C12.0354 9.71324 11.3651 9.64004 10.6925 9.63552H10.6922C9.91716 9.63552 9.20513 9.74562 8.6914 9.85395L8.69139 9.85395C8.4163 9.91203 8.14381 9.98175 7.87464 10.0629L7.87457 10.0627L7.86693 10.0653C7.86088 10.0671 7.85484 10.0689 7.8488 10.0708L7.84878 10.0707L7.84672 10.0714L7.83628 10.0751H7.7736L7.78054 10.096C7.69077 10.1336 7.61018 10.1906 7.54467 10.2631C7.46801 10.3479 7.41462 10.4512 7.38967 10.5628L7.38966 10.5629L6.75232 13.4333L17.6605 14.2945ZM17.4431 15.6025L17.4431 15.6025C18.0197 15.6985 18.6113 15.571 19.0972 15.246C19.5831 14.921 19.9268 14.423 20.0584 13.8534L20.413 12.3189L20.3643 12.3076L20.413 12.3189C20.788 10.6942 20.191 8.88955 18.5637 8.1116C16.8394 7.28634 14.129 6.35563 10.6896 6.3671C7.26839 6.37857 4.56795 7.29776 2.84377 8.11232L2.84375 8.11233C1.20412 8.88773 0.598006 10.7006 0.974647 12.3352L0.974658 12.3352L1.32601 13.8534C1.45752 14.4228 1.80113 14.9207 2.28687 15.2457C2.77261 15.5706 3.36394 15.6982 3.94046 15.6025L3.94049 15.6025L6.51274 15.1735C6.88388 15.1116 7.22805 14.9402 7.50112 14.6813C7.77419 14.4224 7.9637 14.0879 8.04536 13.7206L7.99655 13.7098L8.04536 13.7206L8.5976 11.2364C9.28263 11.0627 9.98577 10.9703 10.6925 10.9612C11.3472 10.9612 11.9636 11.0554 12.4198 11.1513C12.5589 11.1809 12.6826 11.2105 12.786 11.2365L13.3382 13.7206L13.387 13.7098L13.3382 13.7206C13.4199 14.088 13.6096 14.4226 13.8828 14.6815C14.156 14.9404 14.5004 15.1117 14.8716 15.1735L17.4431 15.6025Z" fill="#545B7B" stroke="#545B7B" stroke-width="0.1"/>
<path fill-rule="evenodd" clip-rule="evenodd" d="M17.8373 1.74578C18.1674 1.94983 18.2695 2.3828 18.0655 2.71286L7.55096 19.7214C7.34692 20.0514 6.91394 20.1536 6.58388 19.9496C6.25382 19.7455 6.15166 19.3125 6.3557 18.9825L16.8702 1.97396C17.0743 1.6439 17.5072 1.54174 17.8373 1.74578Z" fill="#545B7B"/>
<path fill-rule="evenodd" clip-rule="evenodd" d="M19.7835 1.2868C20.1136 1.49084 20.2158 1.92382 20.0117 2.25388L8.12681 21.4791C7.92277 21.8092 7.48979 21.9114 7.15973 21.7073C6.82967 21.5033 6.72751 21.0703 6.93155 20.7402L18.8165 1.51498C19.0205 1.18492 19.4535 1.08276 19.7835 1.2868Z" fill="white"/>
</g>
<defs>
<clipPath id="clip0_618_5877">
<rect width="22" height="22" fill="white"/>
</clipPath>
</defs>
</svg>
