<svg width="19" height="19" viewBox="0 0 19 19" fill="none" xmlns="http://www.w3.org/2000/svg">
<path fill-rule="evenodd" clip-rule="evenodd" d="M4.95652 0C5.41276 0 5.78261 0.369852 5.78261 0.826087V1.65217H12.3913V0.826087C12.3913 0.369852 12.7612 0 13.2174 0C13.6736 0 14.0435 0.369852 14.0435 0.826087V1.65217H14.8696C16.6945 1.65217 18.1739 3.13158 18.1739 4.95652V15.6957C18.1739 17.5206 16.6945 19 14.8696 19H3.30435C1.47941 19 0 17.5206 0 15.6957V4.95652C0 3.13158 1.47941 1.65217 3.30435 1.65217H4.13043V0.826087C4.13043 0.369852 4.50029 0 4.95652 0ZM3.30435 3.30435C2.39188 3.30435 1.65217 4.04405 1.65217 4.95652V5.78261H16.5217V4.95652C16.5217 4.04405 15.782 3.30435 14.8696 3.30435H3.30435ZM16.5217 7.43478H1.65217V15.6957C1.65217 16.6081 2.39188 17.3478 3.30435 17.3478H14.8696C15.782 17.3478 16.5217 16.6081 16.5217 15.6957V7.43478ZM4.54348 10.7391C4.54348 10.2829 4.91333 9.91304 5.36957 9.91304H7.02174C7.47797 9.91304 7.84783 10.2829 7.84783 10.7391C7.84783 11.1954 7.47797 11.5652 7.02174 11.5652H5.36957C4.91333 11.5652 4.54348 11.1954 4.54348 10.7391ZM10.3261 10.7391C10.3261 10.2829 10.6959 9.91304 11.1522 9.91304H12.8043C13.2606 9.91304 13.6304 10.2829 13.6304 10.7391C13.6304 11.1954 13.2606 11.5652 12.8043 11.5652H11.1522C10.6959 11.5652 10.3261 11.1954 10.3261 10.7391ZM4.54348 14.0435C4.54348 13.5872 4.91333 13.2174 5.36957 13.2174H7.02174C7.47797 13.2174 7.84783 13.5872 7.84783 14.0435C7.84783 14.4997 7.47797 14.8696 7.02174 14.8696H5.36957C4.91333 14.8696 4.54348 14.4997 4.54348 14.0435ZM10.3261 14.0435C10.3261 13.5872 10.6959 13.2174 11.1522 13.2174H12.8043C13.2606 13.2174 13.6304 13.5872 13.6304 14.0435C13.6304 14.4997 13.2606 14.8696 12.8043 14.8696H11.1522C10.6959 14.8696 10.3261 14.4997 10.3261 14.0435Z" fill="#878D99"/>
</svg>
