<svg width="18" height="19" viewBox="0 0 18 19" fill="none" xmlns="http://www.w3.org/2000/svg">
<path d="M15.8511 0.75H2.4279C1.98357 0.752205 1.55807 0.929691 1.24388 1.24388C0.929691 1.55807 0.752205 1.98357 0.75 2.4279V7.35253C0.75 15.0876 7.30219 17.6464 8.61934 18.0827C8.95706 18.1947 9.32191 18.1947 9.65963 18.0827C10.9768 17.6464 17.529 15.0876 17.529 7.35253V2.4279C17.5268 1.98357 17.3493 1.55807 17.0351 1.24388C16.7209 0.929691 16.2954 0.752205 15.8511 0.75ZM15.5155 7.35253C15.5155 13.5104 10.4399 15.6833 9.13949 16.1363C7.83912 15.6833 2.76348 13.5104 2.76348 7.35253V2.76348H15.5155V7.35253ZM8.13275 8.80391V5.44811C8.13275 5.18111 8.23882 4.92504 8.42762 4.73624C8.61642 4.54744 8.87248 4.44137 9.13949 4.44137C9.40649 4.44137 9.66256 4.54744 9.85136 4.73624C10.0402 4.92504 10.1462 5.18111 10.1462 5.44811V8.80391C10.1462 9.07091 10.0402 9.32698 9.85136 9.51578C9.66256 9.70458 9.40649 9.81065 9.13949 9.81065C8.87248 9.81065 8.61642 9.70458 8.42762 9.51578C8.23882 9.32698 8.13275 9.07091 8.13275 8.80391ZM8.19147 13.1077C8.06639 12.9836 7.96714 12.8359 7.89946 12.6732C7.83178 12.5104 7.79701 12.3359 7.79717 12.1597C7.79717 11.8037 7.93859 11.4623 8.19033 11.2105C8.44206 10.9588 8.78348 10.8174 9.13949 10.8174C9.49549 10.8174 9.83692 10.9588 10.0886 11.2105C10.3404 11.4623 10.4818 11.8037 10.4818 12.1597C10.4818 12.5157 10.3404 12.8571 10.0886 13.1089C9.83692 13.3606 9.49549 13.502 9.13949 13.502C8.96326 13.5022 8.78874 13.4674 8.62602 13.3997C8.46331 13.3321 8.31561 13.2328 8.19147 13.1077Z" fill="#545B7B" stroke="white" stroke-width="0.4"/>
</svg>
