<svg width="18" height="20" viewBox="0 0 18 20" fill="none" xmlns="http://www.w3.org/2000/svg">
<path d="M8.9319 10.393C9.07809 10.3158 9.25304 10.3158 9.39923 10.393L16.7449 14.2759C17.1 14.4636 17.1 14.9723 16.7449 15.16L9.39923 19.0429C9.25303 19.1202 9.07809 19.1202 8.9319 19.0429L1.58626 15.16C1.23114 14.9723 1.23114 14.4636 1.58626 14.2759L8.9319 10.393Z" fill="white" stroke="#545B7B" stroke-width="1.4"/>
<path d="M8.9319 5.58445C9.07809 5.50717 9.25304 5.50717 9.39923 5.58445L16.7449 9.46733C17.1 9.65504 17.1 10.1637 16.7449 10.3514L9.39923 14.2343C9.25303 14.3116 9.07809 14.3116 8.9319 14.2343L1.58626 10.3514C1.23114 10.1637 1.23114 9.65504 1.58626 9.46733L8.9319 5.58445Z" fill="white" stroke="#545B7B" stroke-width="1.4"/>
<path d="M8.9319 0.95652C9.0781 0.879244 9.25304 0.879245 9.39923 0.95652L16.7449 4.8394C17.1 5.02711 17.1 5.53577 16.7449 5.72348L9.39923 9.60635C9.25304 9.68363 9.07809 9.68363 8.9319 9.60635L1.58626 5.72348C1.23114 5.53577 1.23114 5.02711 1.58626 4.83939L8.9319 0.95652Z" fill="white" stroke="#545B7B" stroke-width="1.4"/>
</svg>
