<svg width="20" height="22" viewBox="0 0 20 22" fill="none" xmlns="http://www.w3.org/2000/svg">
<path d="M2.8079 2.80776C4.60568 1.00998 7.04399 0 9.58644 0C12.1289 0 14.5672 1.00998 16.365 2.80776C18.1628 4.60554 19.1727 7.04385 19.1727 9.5863C19.1727 12.1287 18.1628 14.5671 16.365 16.3648L15.0581 17.6573C14.0948 18.602 12.8452 19.8174 11.3083 21.3037C10.8464 21.7503 10.229 22 9.58644 22C8.94389 22 8.32648 21.7503 7.86456 21.3037L4.02115 17.5649C3.53783 17.0904 3.13378 16.6907 2.8079 16.3648C1.91769 15.4747 1.21154 14.4179 0.729753 13.2548C0.247971 12.0918 0 10.8452 0 9.5863C0 8.32739 0.247971 7.08082 0.729753 5.91775C1.21154 4.75469 1.91769 3.69791 2.8079 2.80776ZM15.1969 3.97477C13.7086 2.48679 11.6902 1.65097 9.58566 1.65117C7.48113 1.65138 5.46289 2.4876 3.97491 3.97587C2.48693 5.46414 1.65111 7.48255 1.65131 9.58708C1.65152 11.6916 2.48774 13.7098 3.97601 15.1978L5.61202 16.814C6.74211 17.9182 7.87536 19.0192 9.01174 20.1169C9.16574 20.2659 9.37162 20.3491 9.58589 20.3491C9.80016 20.3491 10.006 20.2659 10.16 20.1169L13.8966 16.4837C14.4141 15.9762 14.8468 15.5479 15.1958 15.1978C16.6837 13.7098 17.5196 11.6917 17.5196 9.5874C17.5196 7.48309 16.6837 5.46497 15.1958 3.97697L15.1969 3.97477ZM9.58644 6.58511C10.0205 6.58511 10.4502 6.6706 10.8512 6.83669C11.2522 7.00279 11.6166 7.24624 11.9235 7.55314C12.2304 7.86004 12.4738 8.22439 12.6399 8.62537C12.806 9.02636 12.8915 9.45613 12.8915 9.89016C12.8915 10.3242 12.806 10.754 12.6399 11.1549C12.4738 11.5559 12.2304 11.9203 11.9235 12.2272C11.6166 12.5341 11.2522 12.7775 10.8512 12.9436C10.4502 13.1097 10.0205 13.1952 9.58644 13.1952C8.72048 13.1794 7.89532 12.8243 7.28851 12.2063C6.68169 11.5883 6.34171 10.7568 6.34171 9.89071C6.34171 9.0246 6.68169 8.19311 7.28851 7.57511C7.89532 6.95712 8.72048 6.60202 9.58644 6.58621V6.58511ZM9.58644 8.23653C9.36928 8.23653 9.15425 8.27931 8.95362 8.36241C8.753 8.44551 8.5707 8.56732 8.41715 8.72087C8.2636 8.87442 8.14179 9.05672 8.05869 9.25734C7.97559 9.45797 7.93282 9.673 7.93282 9.89016C7.93282 10.1073 7.97559 10.3223 8.05869 10.523C8.14179 10.7236 8.2636 10.9059 8.41715 11.0594C8.5707 11.213 8.753 11.3348 8.95362 11.4179C9.15425 11.501 9.36928 11.5438 9.58644 11.5438C10.0249 11.5438 10.4453 11.3696 10.7553 11.0596C11.0653 10.7496 11.2395 10.3291 11.2395 9.89071C11.2395 9.45229 11.0653 9.03182 10.7553 8.72181C10.4453 8.4118 10.0249 8.23764 9.58644 8.23764V8.23653Z" fill="#878D99"/>
</svg>
