<svg width="20" height="19" viewBox="0 0 20 19" fill="none" xmlns="http://www.w3.org/2000/svg">
<path d="M16.8147 19H16.6904C2.33081 18.1742 0.29196 6.05808 0.00696045 2.36039C-0.0160038 2.07289 0.0179868 1.78368 0.106984 1.50934C0.195982 1.235 0.338238 0.980914 0.5256 0.761646C0.712963 0.542377 0.94175 0.362233 1.19885 0.231536C1.45596 0.10084 1.73632 0.0221582 2.02388 6.85162e-07H6.05042C6.34314 -0.000282681 6.62919 0.0873347 6.87154 0.251503C7.11388 0.415672 7.30135 0.648828 7.40965 0.92077L8.52042 3.65385C8.62737 3.91952 8.65391 4.21075 8.59675 4.49137C8.53958 4.772 8.40123 5.02964 8.19888 5.23231L6.64235 6.80346C6.88548 8.18516 7.54717 9.45883 8.53788 10.4522C9.5286 11.4455 10.8005 12.1105 12.1816 12.3573L13.7673 10.7862C13.9731 10.586 14.2331 10.4509 14.5151 10.3976C14.7971 10.3444 15.0886 10.3753 15.3531 10.4865L18.1081 11.59C18.376 11.7017 18.6045 11.8907 18.7645 12.1327C18.9246 12.3748 19.009 12.659 19.007 12.9492V16.8077C19.007 17.3891 18.776 17.9468 18.3648 18.3579C17.9537 18.769 17.3961 19 16.8147 19ZM2.19927 1.46154C2.00546 1.46154 1.81958 1.53853 1.68254 1.67558C1.54549 1.81262 1.4685 1.9985 1.4685 2.19231V2.25077C1.80465 6.57692 3.96042 16.8077 16.7708 17.5385C16.8668 17.5444 16.963 17.5313 17.054 17.5C17.1449 17.4686 17.2288 17.4197 17.3007 17.3558C17.3727 17.292 17.4314 17.2146 17.4734 17.1281C17.5153 17.0415 17.5398 16.9476 17.5454 16.8515V12.9492L14.7904 11.8458L12.6931 13.9285L12.3423 13.8846C5.98465 13.0881 5.12234 6.73039 5.12234 6.66462L5.0785 6.31385L7.15388 4.21654L6.05773 1.46154H2.19927Z" fill="#85899D"/>
</svg>
