<svg width="24" height="22" viewBox="0 0 24 22" fill="none" xmlns="http://www.w3.org/2000/svg">
<path d="M11.3486 3.66319L12.0048 4.84877L12.661 3.66319C13.1425 2.79333 13.8449 2.06591 14.6975 1.55439C15.5437 1.04666 16.508 0.769493 17.4944 0.750296C19.0833 0.825152 20.5791 1.52277 21.6576 2.69262C22.7412 3.8679 23.3156 5.42427 23.2554 7.02172L23.2548 7.03585V7.05C23.2548 9.07668 22.1778 11.2918 20.5133 13.4782C18.8624 15.6469 16.7088 17.6895 14.7228 19.3554L14.7223 19.3558C13.9612 19.9954 12.999 20.346 12.0048 20.346C11.0107 20.346 10.0484 19.9954 9.28735 19.3558L9.28683 19.3554C7.30085 17.6895 5.14732 15.6469 3.49634 13.4782C1.83185 11.2918 0.754841 9.07668 0.754841 7.05V7.03585L0.754308 7.02172C0.69403 5.42427 1.26843 3.8679 2.35203 2.69262C3.43061 1.52277 4.92642 0.825152 6.51525 0.750296C7.50166 0.769494 8.46598 1.04666 9.3122 1.55439C10.1647 2.06591 10.8672 2.79333 11.3486 3.66319Z" stroke="#878D99" stroke-width="1.5"/>
</svg>
