<svg width="21" height="28" viewBox="0 0 21 28" fill="none" xmlns="http://www.w3.org/2000/svg">
<path d="M10.3331 19.0001C13.5831 19.0001 16.1664 16.4167 16.1664 13.1667V6.50008C16.1664 3.25008 13.5831 0.666748 10.3331 0.666748C7.08309 0.666748 4.49976 3.25008 4.49976 6.50008V13.1667C4.49976 16.4167 7.08309 19.0001 10.3331 19.0001Z" fill="#4880FF"/>
<path d="M20.3333 13.167H18.6666C18.6666 17.7503 14.9166 21.5003 10.3333 21.5003C5.74992 21.5003 1.99992 17.7503 1.99992 13.167H0.333252C0.333252 18.417 4.33325 22.667 9.49992 23.0837V25.667H6.99992C6.49992 25.667 6.16658 26.0003 6.16658 26.5003C6.16658 27.0003 6.49992 27.3337 6.99992 27.3337H13.6666C14.1666 27.3337 14.4999 27.0003 14.4999 26.5003C14.4999 26.0003 14.1666 25.667 13.6666 25.667H11.1666V23.0837C16.3333 22.667 20.3333 18.417 20.3333 13.167Z" fill="#4880FF"/>
</svg>
