<svg width="24" height="21" viewBox="0 0 24 21" fill="none" xmlns="http://www.w3.org/2000/svg">
<path fill-rule="evenodd" clip-rule="evenodd" d="M6.38776 1.82482C3.86821 1.82482 1.82571 3.86732 1.82571 6.38687V10.0365C1.82571 10.22 1.8365 10.4006 1.8574 10.5778L1.87966 10.7666L1.82469 10.9485L1.82482 10.9489V19.0017L2.41861 19.6944L1.82482 19.0017L6.19296 15.2575C6.68907 14.8323 7.32092 14.5986 7.97433 14.5986H17.3367C19.8562 14.5986 21.8987 12.5561 21.8987 10.0365V6.38687C21.8987 3.86732 19.8562 1.82482 17.3367 1.82482H6.38776ZM0.000891026 6.38687C0.000891026 2.8595 2.86039 0 6.38776 0H17.3367C20.8641 0 23.7236 2.8595 23.7236 6.38687V10.0365C23.7236 13.5639 20.8641 16.4234 17.3367 16.4234H7.97433C7.75653 16.4234 7.54591 16.5013 7.38054 16.643L3.0124 20.3872L2.42433 19.7011L3.0124 20.3872C1.82869 21.4018 0 20.5607 0 19.0017V10.9489C0 10.8403 0.00958348 10.7334 0.0280812 10.6291C0.010075 10.4338 0.000891026 10.2361 0.000891026 10.0365V6.38687Z" fill="#878D99"/>
</svg>
