<svg width="21" height="20" viewBox="0 0 21 20" fill="none" xmlns="http://www.w3.org/2000/svg">
<path fill-rule="evenodd" clip-rule="evenodd" d="M8.54616 0.986105C9.09503 -0.328701 10.9577 -0.328702 11.5066 0.986104L13.4739 5.69887L18.6622 6.40107C20.0527 6.58927 20.5483 8.34618 19.4611 9.23335L15.4652 12.4942L16.7459 18.0287C17.0776 19.462 15.4659 20.5484 14.2617 19.7033L10.0264 16.7307L5.79103 19.7033C4.58686 20.5485 2.97517 19.4621 3.30682 18.0288L4.58748 12.4942L0.591589 9.23334C-0.495561 8.34617 7.0039e-05 6.58927 1.39059 6.40107L6.57883 5.69887L8.54616 0.986105ZM10.0264 2.19885L8.21992 6.52625C8.00057 7.0517 7.5191 7.42149 6.95484 7.49786L2.15965 8.14687L5.85703 11.1641C6.3307 11.5507 6.54344 12.1728 6.40562 12.7685L5.22769 17.8591L9.10491 15.1378C9.65792 14.7497 10.3949 14.7497 10.9479 15.1378L14.825 17.859L13.647 12.7685C13.5092 12.1729 13.7219 11.5507 14.1956 11.1641L17.8931 8.14686L13.0979 7.49786C12.5337 7.42149 12.0522 7.0517 11.8328 6.52625L10.0264 2.19885Z" fill="#878D99"/>
</svg>
