<svg width="24" height="21" viewBox="0 0 24 21" fill="none" xmlns="http://www.w3.org/2000/svg">
<path fill-rule="evenodd" clip-rule="evenodd" d="M10.8261 0.736084V6.2676C11.2251 6.32019 11.7272 6.40983 12.3081 6.56225C13.7788 6.94813 15.7522 7.73598 17.8283 9.33817C19.9589 10.9824 21.2419 13.1079 21.9899 14.7912C22.3656 15.6368 22.6118 16.3829 22.7649 16.9214C22.8415 17.1911 22.8952 17.4099 22.9302 17.5644C22.9478 17.6417 22.9607 17.703 22.9695 17.7467C22.9739 17.7686 22.9773 17.786 22.9797 17.7989L22.9827 17.8147L22.9837 17.82L22.984 17.8219C22.9841 17.8223 22.9843 17.8234 22 17.9999L22.9843 17.8234L23.508 20.7444L21.3244 18.7372L21.3236 18.7364L21.3225 18.7354L21.3092 18.7235C21.2962 18.7119 21.2749 18.6931 21.2454 18.6677C21.1865 18.6168 21.095 18.5394 20.9716 18.44C20.7249 18.2411 20.3513 17.9543 19.8577 17.6153C18.87 16.9369 17.4057 16.0519 15.519 15.243C13.6533 14.4432 12.2302 14.1549 11.3012 14.0606C11.1253 14.0427 10.9669 14.0318 10.8261 14.0257V19.5236L0.515137 10.1298L10.8261 0.736084ZM9.82608 13.0657C9.63665 12.0838 9.63718 12.0837 9.63771 12.0836L9.63882 12.0834L9.64119 12.0829L9.64655 12.0819L9.65969 12.0796C9.66953 12.0779 9.68151 12.0758 9.69564 12.0736C9.7239 12.0692 9.7607 12.0638 9.80593 12.0583C9.89641 12.0473 10.0206 12.0354 10.1775 12.0276C10.4915 12.0121 10.9358 12.0132 11.5032 12.0708C12.6393 12.1862 14.2597 12.5271 16.3071 13.4048C17.8056 14.0473 19.0595 14.7358 20.0468 15.3502C19.3715 13.9062 18.2895 12.2204 16.6064 10.9215C14.7696 9.50397 13.0473 8.82389 11.8006 8.49677C11.1764 8.333 10.6708 8.25759 10.3297 8.22295C10.1592 8.20564 10.0301 8.19854 9.94813 8.19567C9.90717 8.19423 9.87803 8.19385 9.86145 8.19377L9.84637 8.19379L8.82608 8.21839V5.26373L3.48486 10.1298L8.82608 14.996V12.2402L9.63665 12.0838L9.82608 13.0657Z" fill="#878D99"/>
</svg>
