<svg width="33" height="32" viewBox="0 0 33 32" fill="none" xmlns="http://www.w3.org/2000/svg">
<path d="M21.4543 22.5052L24.1822 19.7773C24.5497 19.4145 25.0145 19.1661 25.5204 19.0623C26.0262 18.9586 26.5513 19.0039 27.0319 19.1928L30.3566 20.5202C30.8422 20.7173 31.2587 21.0538 31.5534 21.4873C31.8482 21.9207 32.008 22.4317 32.0128 22.9558V29.0449C32.01 29.4015 31.935 29.7538 31.7925 30.0806C31.6499 30.4074 31.4427 30.702 31.1833 30.9466C30.9238 31.1912 30.6176 31.3808 30.283 31.504C29.9484 31.6271 29.5923 31.6813 29.2362 31.6632C5.93937 30.214 1.2386 10.4854 0.349592 2.93494C0.308324 2.56416 0.34603 2.18884 0.460229 1.83368C0.574428 1.47852 0.762532 1.15156 1.01217 0.874314C1.2618 0.597071 1.56731 0.375824 1.90859 0.22513C2.24987 0.0744365 2.61919 -0.00228935 2.99225 1.79887e-07H8.8743C9.39919 0.00155385 9.91162 0.160103 10.3457 0.455256C10.7797 0.750408 11.1155 1.16866 11.3099 1.65623L12.6374 4.98087C12.8325 5.45955 12.8823 5.98513 12.7805 6.49195C12.6787 6.99877 12.4298 7.46435 12.065 7.83056L9.33707 10.5585C9.33707 10.5585 10.9081 21.19 21.4543 22.5052Z" fill="white"/>
</svg>
