<svg width="17" height="20" viewBox="0 0 17 20" fill="none" xmlns="http://www.w3.org/2000/svg">
<path fill-rule="evenodd" clip-rule="evenodd" d="M2.61635 1.74397C2.93678 0.732806 3.88281 0 5 0H11.6667C12.7839 0 13.7299 0.732806 14.0503 1.74397C15.5467 2.07196 16.6667 3.40519 16.6667 5V16.6667C16.6667 18.5076 15.1743 20 13.3333 20H3.33333C1.49238 20 0 18.5076 0 16.6667V5C0 3.40519 1.12 2.07196 2.61635 1.74397ZM2.69154 3.46139C2.08965 3.71274 1.66667 4.30697 1.66667 5V16.6667C1.66667 17.5871 2.41286 18.3333 3.33333 18.3333H13.3333C14.2538 18.3333 15 17.5871 15 16.6667V5C15 4.30697 14.577 3.71274 13.9751 3.46139C13.5984 4.36491 12.7067 5 11.6667 5H5C3.95996 5 3.06826 4.36491 2.69154 3.46139ZM5 1.66667C4.53976 1.66667 4.16667 2.03976 4.16667 2.5C4.16667 2.96024 4.53976 3.33333 5 3.33333H11.6667C12.1269 3.33333 12.5 2.96024 12.5 2.5C12.5 2.03976 12.1269 1.66667 11.6667 1.66667H5Z" fill="#878D99"/>
</svg>
