<svg width="22" height="22" viewBox="0 0 22 22" fill="none" xmlns="http://www.w3.org/2000/svg">
<path d="M19.1311 11.1001C19.1311 9.56374 18.7011 8.05805 17.8896 6.75346C17.0782 5.44886 15.9178 4.39745 14.5397 3.71822C13.1617 3.039 11.621 2.75908 10.0921 2.91016C8.56317 3.06124 7.10707 3.63728 5.8886 4.57308H6.6446C6.94566 4.57308 7.23438 4.69267 7.44726 4.90555C7.66014 5.11843 7.77974 5.40716 7.77974 5.70821C7.77974 6.00927 7.66014 6.29799 7.44726 6.51087C7.23438 6.72375 6.94566 6.84335 6.6446 6.84335H3.2392C2.93814 6.84335 2.64942 6.72375 2.43654 6.51087C2.22366 6.29799 2.10407 6.00927 2.10407 5.70821V5.42443H2.06547L2.10407 5.3654V2.30281C2.10407 2.00176 2.22366 1.71303 2.43654 1.50015C2.64942 1.28727 2.93814 1.16768 3.2392 1.16768C3.54026 1.16768 3.82898 1.28727 4.04186 1.50015C4.25474 1.71303 4.37433 2.00176 4.37433 2.30281V2.87492C6.22916 1.39855 8.53069 0.59642 10.9014 0.60011C13.0328 0.600406 15.1137 1.24936 16.8674 2.46072C18.6211 3.67208 19.9647 5.38848 20.7195 7.38179C21.4743 9.3751 21.6046 11.5509 21.093 13.6201C20.5815 15.6892 19.4524 17.5537 17.8557 18.9656C16.259 20.3776 14.2705 21.2702 12.1543 21.5249C10.0382 21.7795 7.89461 21.3841 6.00858 20.3912C4.12254 19.3983 2.58334 17.8549 1.59556 15.9662C0.607769 14.0775 0.218175 11.9329 0.478555 9.8174C0.550068 9.23621 1.06428 8.82983 1.65001 8.82983C2.31974 8.82983 2.80444 9.47572 2.72725 10.142C2.59715 11.2554 2.69586 12.3836 3.01732 13.4574C3.33878 14.5312 3.87622 15.5281 4.59667 16.3868C5.31712 17.2455 6.2054 17.948 7.20703 18.4512C8.20865 18.9543 9.30252 19.2476 10.4215 19.313C11.5405 19.3783 12.6611 19.2144 13.7145 18.8312C14.7679 18.4481 15.7319 17.8538 16.5474 17.0848C17.3629 16.3157 18.0128 15.3882 18.457 14.3591C18.9013 13.33 19.1307 12.221 19.1311 11.1001ZM12.0365 6.55956C12.0365 6.25851 11.9169 5.96978 11.704 5.7569C11.4911 5.54402 11.2024 5.42443 10.9014 5.42443C10.6003 5.42443 10.3116 5.54402 10.0987 5.7569C9.88582 5.96978 9.76622 6.25851 9.76622 6.55956V12.2352C9.76622 12.5363 9.88582 12.825 10.0987 13.0379C10.3116 13.2508 10.6003 13.3704 10.9014 13.3704H14.3068C14.6078 13.3704 14.8965 13.2508 15.1094 13.0379C15.3223 12.825 15.4419 12.5363 15.4419 12.2352C15.4419 11.9342 15.3223 11.6455 15.1094 11.4326C14.8965 11.2197 14.6078 11.1001 14.3068 11.1001H12.0365V6.55956Z" fill="#85899D" stroke="#85899D" stroke-width="0.2"/>
</svg>
