<svg width="17" height="17" viewBox="0 0 17 17" fill="none" xmlns="http://www.w3.org/2000/svg">
<path d="M11.2271 11.7526L12.5911 10.3887C12.7748 10.2073 13.0072 10.0831 13.2601 10.0312C13.5131 9.9793 13.7756 10.002 14.0159 10.0964L15.6782 10.7601C15.9211 10.8587 16.1293 11.0269 16.2767 11.2437C16.424 11.4604 16.5039 11.7159 16.5063 11.9779V15.0225C16.5049 15.2008 16.4675 15.3769 16.3962 15.5403C16.3249 15.7037 16.2213 15.851 16.0916 15.9733C15.9619 16.0956 15.8087 16.1904 15.6414 16.252C15.4741 16.3136 15.2961 16.3407 15.118 16.3316C3.46962 15.607 1.11924 5.74272 0.674735 1.96749C0.654101 1.7821 0.672954 1.59444 0.730053 1.41686C0.787153 1.23928 0.881205 1.0758 1.00602 0.937182C1.13084 0.79856 1.28359 0.687937 1.45423 0.61259C1.62487 0.537243 1.80953 0.49888 1.99607 0.500025H4.93709C5.19954 0.500802 5.45575 0.580076 5.67277 0.727653C5.88979 0.875229 6.05771 1.08436 6.15491 1.32814L6.81862 2.99046C6.9162 3.2298 6.94109 3.49259 6.89019 3.746C6.83929 3.99941 6.71486 4.2322 6.53243 4.4153L5.16848 5.77926C5.16848 5.77926 5.95397 11.095 11.2271 11.7526Z" fill="white"/>
</svg>
