<svg width="32" height="32" viewBox="0 0 32 32" fill="none" xmlns="http://www.w3.org/2000/svg">
<path d="M19.3421 4.33744C19.3421 2.88168 17.6079 2.12462 16.5407 3.11514L10.084 9.1066C9.92994 9.24996 9.72741 9.32978 9.517 9.33005H5.16806C4.50467 9.33005 3.86845 9.59358 3.39936 10.0627C2.93028 10.5318 2.66675 11.168 2.66675 11.8314V20.1691C2.66675 20.8324 2.93028 21.4687 3.39936 21.9377C3.86845 22.4068 4.50467 22.6704 5.16806 22.6704H9.51533C9.72552 22.6702 9.92802 22.7494 10.0823 22.8921L16.5407 28.8853C17.6079 29.8741 19.3421 29.1187 19.3421 27.663V4.33744ZM24.7683 7.04052C24.85 6.9676 24.9452 6.91148 25.0486 6.87536C25.152 6.83925 25.2614 6.82384 25.3708 6.83004C25.4801 6.83623 25.5871 6.8639 25.6857 6.91146C25.7844 6.95902 25.8727 7.02554 25.9456 7.10722C28.1329 9.55298 29.3421 12.719 29.3421 16.0002C29.3421 19.2814 28.1329 22.4474 25.9456 24.8932C25.8729 24.9759 25.7845 25.0434 25.6856 25.0918C25.5866 25.1402 25.4791 25.1685 25.3691 25.1751C25.2592 25.1817 25.149 25.1664 25.045 25.1302C24.941 25.094 24.8452 25.0375 24.7631 24.964C24.6811 24.8905 24.6144 24.8015 24.5669 24.7022C24.5194 24.6028 24.4921 24.495 24.4866 24.385C24.481 24.275 24.4973 24.1649 24.5345 24.0613C24.5717 23.9576 24.629 23.8623 24.7033 23.7809C26.6173 21.6409 27.6754 18.8705 27.6754 15.9994C27.6754 13.1283 26.6173 10.3579 24.7033 8.21781C24.5558 8.05306 24.4798 7.83648 24.492 7.6157C24.5042 7.39492 24.6036 7.18802 24.7683 7.04052ZM22.8089 20.8911C22.714 20.8365 22.6307 20.7637 22.5639 20.6769C22.4971 20.5901 22.448 20.491 22.4195 20.3852C22.391 20.2794 22.3837 20.1691 22.3978 20.0605C22.412 19.9519 22.4474 19.8471 22.5021 19.7522C23.1611 18.6115 23.508 17.3175 23.508 16.0002C23.508 14.6829 23.1611 13.3889 22.5021 12.2482C22.4418 12.1533 22.4013 12.0472 22.383 11.9363C22.3648 11.8253 22.3692 11.7118 22.3959 11.6026C22.4227 11.4934 22.4712 11.3907 22.5387 11.3007C22.6062 11.2108 22.6911 11.1354 22.7885 11.0791C22.8859 11.0228 22.9936 10.9868 23.1052 10.9733C23.2168 10.9597 23.3301 10.9689 23.4381 11.0002C23.5461 11.0315 23.6466 11.0844 23.7336 11.1556C23.8207 11.2268 23.8924 11.3148 23.9445 11.4145C24.7501 12.8085 25.1743 14.39 25.1746 16C25.1749 17.61 24.7512 19.1917 23.9462 20.5859C23.8356 20.777 23.6538 20.9164 23.4407 20.9736C23.2275 21.0308 23.0003 21.0011 22.8089 20.8911Z" fill="#4880FF"/>
</svg>
