<svg width="20" height="20" viewBox="0 0 20 20" fill="none" xmlns="http://www.w3.org/2000/svg">
<path d="M18.3346 9.99863C18.3348 8.37706 17.8619 6.79067 16.9739 5.4339C16.0858 4.07712 14.8212 3.00891 13.3351 2.36019C11.849 1.71148 10.2058 1.51045 8.60712 1.78174C7.00841 2.05303 5.52359 2.78485 4.33464 3.88752H5.83464C6.05565 3.88752 6.26761 3.97531 6.42389 4.13159C6.58017 4.28787 6.66797 4.49984 6.66797 4.72085C6.66797 4.94186 6.58017 5.15382 6.42389 5.3101C6.26761 5.46639 6.05565 5.55418 5.83464 5.55418H2.50131C2.28029 5.55418 2.06833 5.46639 1.91205 5.3101C1.75577 5.15382 1.66797 4.94186 1.66797 4.72085V1.38752C1.66797 1.1665 1.75577 0.954541 1.91205 0.798261C2.06833 0.641981 2.28029 0.554183 2.50131 0.554183C2.72232 0.554183 2.93428 0.641981 3.09056 0.798261C3.24684 0.954541 3.33464 1.1665 3.33464 1.38752V2.54529C5.09067 0.9752 7.34459 0.075411 9.69912 0.00453124C12.0536 -0.0663485 14.3576 0.696232 16.2049 2.15785C18.0522 3.61947 19.3242 5.6863 19.7968 7.99401C20.2693 10.3017 19.912 12.7022 18.7878 14.7722C17.6637 16.8423 15.8449 18.4491 13.652 19.3093C11.4591 20.1696 9.0329 20.2281 6.80108 19.4745C4.56927 18.721 2.6751 17.2038 1.45247 15.1903C0.229845 13.1769 -0.242758 10.7964 0.117972 8.46863C0.151429 8.27238 0.254126 8.09463 0.407429 7.96762C0.560731 7.84062 0.754483 7.77278 0.953528 7.7764C1.46464 7.7764 1.83242 8.26307 1.75797 8.76752C1.59007 9.90068 1.65761 11.0563 1.95635 12.1622C2.2551 13.2681 2.77865 14.3005 3.49429 15.195C4.20994 16.0895 5.10232 16.8268 6.11571 17.3609C7.1291 17.8951 8.24172 18.2145 9.38411 18.2994C10.5265 18.3842 11.6741 18.2326 12.7553 17.854C13.8365 17.4755 14.828 16.878 15.6679 16.0991C16.5078 15.3201 17.1781 14.3764 17.637 13.3267C18.0958 12.2771 18.3333 11.1442 18.3346 9.99863ZM10.5569 5.2764C10.5569 5.05539 10.4691 4.84343 10.3128 4.68715C10.1565 4.53087 9.94454 4.44307 9.72353 4.44307C9.50251 4.44307 9.29055 4.53087 9.13427 4.68715C8.97799 4.84343 8.89019 5.05539 8.89019 5.2764V10.2764C8.89019 10.7364 9.26353 11.1097 9.72353 11.1097H12.5013C12.7223 11.1097 12.9343 11.0219 13.0906 10.8657C13.2468 10.7094 13.3346 10.4974 13.3346 10.2764C13.3346 10.0554 13.2468 9.84343 13.0906 9.68715C12.9343 9.53087 12.7223 9.44307 12.5013 9.44307H10.5569V5.2764Z" fill="#85899D"/>
</svg>
