<svg width="18" height="24" viewBox="0 0 18 24" fill="none" xmlns="http://www.w3.org/2000/svg">
<path fill-rule="evenodd" clip-rule="evenodd" d="M5.14286 22.2857C5.14286 22.7404 4.96224 23.1764 4.64075 23.4979C4.31926 23.8194 3.88323 24 3.42857 24H1.71429C1.25963 24 0.823594 23.8194 0.502103 23.4979C0.180612 23.1764 0 22.7404 0 22.2857V1.71429C0 1.25963 0.180612 0.823594 0.502103 0.502103C0.823594 0.180612 1.25963 0 1.71429 0H3.42857C3.88323 0 4.31926 0.180612 4.64075 0.502103C4.96224 0.823594 5.14286 1.25963 5.14286 1.71429V22.2857ZM17.1429 22.2857C17.1429 22.7404 16.9622 23.1764 16.6408 23.4979C16.3193 23.8194 15.8832 24 15.4286 24H13.7143C13.2596 24 12.8236 23.8194 12.5021 23.4979C12.1806 23.1764 12 22.7404 12 22.2857V1.71429C12 1.25963 12.1806 0.823594 12.5021 0.502103C12.8236 0.180612 13.2596 0 13.7143 0H15.4286C15.8832 0 16.3193 0.180612 16.6408 0.502103C16.9622 0.823594 17.1429 1.25963 17.1429 1.71429V22.2857Z" fill="white"/>
</svg>
