<svg width="24" height="24" viewBox="0 0 24 24" fill="none" xmlns="http://www.w3.org/2000/svg">
<circle cx="12" cy="12" r="12" fill="#EFF0F4"/>
<path fill-rule="evenodd" clip-rule="evenodd" d="M16.8017 7.19825C17.0661 7.46257 17.0661 7.89114 16.8017 8.15546L12.9572 12L16.8017 15.8445C17.0661 16.1089 17.0661 16.5374 16.8017 16.8018C16.5374 17.0661 16.1088 17.0661 15.8445 16.8018L12 12.9572L8.15546 16.8017C7.89114 17.0661 7.46257 17.0661 7.19825 16.8017C6.93392 16.5374 6.93392 16.1088 7.19825 15.8445L11.0428 12L7.19825 8.15548C6.93392 7.89115 6.93392 7.46259 7.19825 7.19826C7.46257 6.93393 7.89114 6.93393 8.15546 7.19826L12 11.0428L15.8445 7.19825C16.1088 6.93392 16.5374 6.93392 16.8017 7.19825Z" fill="#0B1523"/>
</svg>
