<svg width="17" height="20" viewBox="0 0 17 20" fill="none" xmlns="http://www.w3.org/2000/svg">
<path d="M11.5 10.25C11.5 10.0511 11.421 9.86032 11.2803 9.71967C11.1397 9.57902 10.9489 9.5 10.75 9.5H5.75C5.55109 9.5 5.36032 9.57902 5.21967 9.71967C5.07902 9.86032 5 10.0511 5 10.25V10.75C5 11.75 6.383 12.5 8.25 12.5C10.117 12.5 11.5 11.75 11.5 10.75V10.25ZM10 6.745C10 5.78 9.217 5 8.25 5C7.283 5 6.5 5.779 6.5 6.745C6.5 7.20913 6.68437 7.65425 7.01256 7.98244C7.34075 8.31063 7.78587 8.495 8.25 8.495C8.71413 8.495 9.15925 8.31063 9.48744 7.98244C9.81563 7.65425 10 7.20913 10 6.745ZM0 2.5C0 1.83696 0.263392 1.20107 0.732233 0.732233C1.20107 0.263392 1.83696 0 2.5 0H14C14.3283 0 14.6534 0.0646644 14.9567 0.190301C15.26 0.315938 15.5356 0.500087 15.7678 0.732233C15.9999 0.964379 16.1841 1.23998 16.3097 1.54329C16.4353 1.84661 16.5 2.1717 16.5 2.5V16.75C16.5 16.9489 16.421 17.1397 16.2803 17.2803C16.1397 17.421 15.9489 17.5 15.75 17.5H1.5C1.5 17.7652 1.60536 18.0196 1.79289 18.2071C1.98043 18.3946 2.23478 18.5 2.5 18.5H15.75C15.9489 18.5 16.1397 18.579 16.2803 18.7197C16.421 18.8603 16.5 19.0511 16.5 19.25C16.5 19.4489 16.421 19.6397 16.2803 19.7803C16.1397 19.921 15.9489 20 15.75 20H2.5C1.83696 20 1.20107 19.7366 0.732233 19.2678C0.263392 18.7989 0 18.163 0 17.5V2.5ZM1.5 2.5V16H15V2.5C15 2.23478 14.8946 1.98043 14.7071 1.79289C14.5196 1.60536 14.2652 1.5 14 1.5H2.5C2.23478 1.5 1.98043 1.60536 1.79289 1.79289C1.60536 1.98043 1.5 2.23478 1.5 2.5Z" fill="#85899D"/>
</svg>
