<svg width="20" height="20" viewBox="0 0 20 20" fill="none" xmlns="http://www.w3.org/2000/svg">
<path d="M17.1429 0H2.85714C1.27902 0 0 1.27902 0 2.85714V17.1429C0 18.721 1.27902 20 2.85714 20H17.1429C18.721 20 20 18.721 20 17.1429V2.85714C20 1.27902 18.7188 0 17.1429 0ZM15.6964 12.9241L15.1777 15.1737C15.1048 15.4917 14.825 15.7143 14.4973 15.7143C8.86786 15.7143 4.2875 11.1339 4.2875 5.5C4.2875 5.17286 4.51 4.8933 4.82812 4.82054L7.07723 4.30134C7.40509 4.22531 7.74152 4.39549 7.87768 4.70589L8.91652 7.12911C8.97556 7.26814 8.98793 7.42256 8.95177 7.56922C8.91562 7.71587 8.83288 7.84685 8.71598 7.9425L7.51339 8.92857C8.27188 10.4737 9.52857 11.7299 11.0746 12.4888L12.0576 11.2875C12.2515 11.0468 12.5866 10.9638 12.8719 11.0873L15.2933 12.1253C15.6027 12.2589 15.7723 12.5982 15.6964 12.9241Z" fill="#85899D"/>
</svg>
