<svg width="17" height="18" viewBox="0 0 17 18" fill="none" xmlns="http://www.w3.org/2000/svg">
<path fill-rule="evenodd" clip-rule="evenodd" d="M2.22407 0.809585C2.65155 0.296602 3.28481 0 3.95256 0H12.5474C13.2152 0 13.8485 0.296602 14.2759 0.809585L15.9785 2.85266C16.3155 3.25702 16.5 3.76672 16.5 4.29308V15C16.5 16.6569 15.1569 18 13.5 18H3C1.34315 18 0 16.6569 0 15V4.29308C0 3.76672 0.184536 3.25702 0.521502 2.85266L2.22407 0.809585ZM3.95256 1.5C3.72998 1.5 3.51889 1.59887 3.3764 1.76986L2.03878 3.375H14.4612L13.1236 1.76986C12.9811 1.59887 12.77 1.5 12.5474 1.5H3.95256ZM15 4.875H1.5V15C1.5 15.8284 2.17157 16.5 3 16.5H13.5C14.3284 16.5 15 15.8284 15 15V4.875ZM5.25 6.75C5.66422 6.75 6 7.08579 6 7.5C6 8.74264 7.00736 9.75 8.25 9.75C9.49264 9.75 10.5 8.74264 10.5 7.5C10.5 7.08579 10.8358 6.75 11.25 6.75C11.6642 6.75 12 7.08579 12 7.5C12 9.57107 10.3211 11.25 8.25 11.25C6.17893 11.25 4.5 9.57107 4.5 7.5C4.5 7.08579 4.83579 6.75 5.25 6.75Z" fill="#878D99"/>
</svg>
