<svg width="22" height="22" viewBox="0 0 22 22" fill="none" xmlns="http://www.w3.org/2000/svg">
<path d="M19.3667 10.9997C19.3667 15.6205 15.6208 19.3663 11 19.3663C6.37923 19.3663 2.63334 15.6205 2.63334 10.9997C2.63334 6.37889 6.37923 2.63301 11 2.63301C15.6208 2.63301 19.3667 6.37889 19.3667 10.9997Z" fill="white" stroke="#545B7B" stroke-width="1.6"/>
<mask id="path-2-inside-1_618_5949" fill="white">
<ellipse cx="11" cy="7.33366" rx="0.916667" ry="0.916667"/>
</mask>
<ellipse cx="11" cy="7.33366" rx="0.916667" ry="0.916667" fill="#85899D"/>
<path d="M10.9167 7.33366C10.9167 7.28764 10.954 7.25033 11 7.25033V9.25033C12.0586 9.25033 12.9167 8.3922 12.9167 7.33366H10.9167ZM11 7.25033C11.046 7.25033 11.0833 7.28764 11.0833 7.33366H9.08334C9.08334 8.3922 9.94146 9.25033 11 9.25033V7.25033ZM11.0833 7.33366C11.0833 7.37968 11.046 7.41699 11 7.41699V5.41699C9.94146 5.41699 9.08334 6.27511 9.08334 7.33366H11.0833ZM11 7.41699C10.954 7.41699 10.9167 7.37968 10.9167 7.33366H12.9167C12.9167 6.27511 12.0586 5.41699 11 5.41699V7.41699Z" fill="#545B7B" mask="url(#path-2-inside-1_618_5949)"/>
<rect x="10.6333" y="9.53366" width="0.733334" height="5.68333" rx="0.366667" fill="#85899D" stroke="#545B7B" stroke-width="0.733334"/>
</svg>
