<svg width="248" height="248" viewBox="0 0 248 248" fill="none" xmlns="http://www.w3.org/2000/svg">
<rect x="40" y="40" width="168" height="168" rx="84" fill="#618BEE" fill-opacity="1"/>
<path d="M105.072 102.023C107.56 100.63 110.732 100.304 113.764 101.073C115.241 101.446 116.503 102.404 117.26 103.724L119.876 108.285C120.808 109.912 121.077 111.835 120.628 113.655C120.178 115.474 119.043 117.051 117.461 118.055L115.16 119.518C114.207 120.121 113.858 121.044 114.076 121.775C114.857 124.391 116.584 127.292 118.483 129.279C119.048 129.873 120.085 130.013 121.099 129.422L122.372 128.679C123.207 128.192 124.131 127.876 125.09 127.75C126.048 127.624 127.022 127.69 127.955 127.945C128.888 128.199 129.761 128.636 130.522 129.232C131.284 129.827 131.92 130.568 132.393 131.411L134.737 135.591C135.504 136.96 135.629 138.594 135.087 140.065C134.006 142.987 131.924 145.344 129.363 146.523C126.762 147.721 123.718 147.671 120.962 145.833C116.599 142.926 111.341 138.032 106.578 129.87C101.754 121.597 100.54 114.557 100.677 109.308C100.764 105.949 102.541 103.438 105.072 102.023ZM131.848 100.916C131.51 100.728 131.112 100.682 130.74 100.788C130.369 100.894 130.055 101.143 129.867 101.481C129.679 101.818 129.633 102.217 129.739 102.588C129.845 102.96 130.095 103.274 130.432 103.462L131.551 104.085C135.045 106.026 138.018 108.785 140.214 112.124C142.41 115.464 143.766 119.286 144.164 123.264L144.257 124.181C144.268 124.378 144.319 124.57 144.406 124.746C144.493 124.922 144.615 125.079 144.765 125.207C144.914 125.335 145.088 125.431 145.276 125.49C145.463 125.548 145.661 125.569 145.857 125.549C146.053 125.529 146.242 125.47 146.415 125.375C146.587 125.28 146.738 125.151 146.859 124.996C146.98 124.841 147.068 124.663 147.119 124.473C147.169 124.283 147.181 124.085 147.152 123.89L147.062 122.975C146.618 118.529 145.103 114.256 142.648 110.523C140.193 106.789 136.87 103.706 132.963 101.536L131.848 100.916ZM128.434 108.722C128.633 108.391 128.955 108.153 129.33 108.06C129.705 107.966 130.101 108.025 130.432 108.224L130.793 108.44C133.145 109.849 135.162 111.753 136.705 114.019C138.249 116.284 139.282 118.858 139.733 121.562L139.861 122.34C139.899 122.532 139.898 122.728 139.858 122.919C139.819 123.11 139.741 123.291 139.63 123.451C139.519 123.612 139.377 123.748 139.212 123.852C139.048 123.957 138.864 124.027 138.671 124.059C138.479 124.091 138.282 124.084 138.093 124.039C137.903 123.993 137.725 123.91 137.568 123.794C137.411 123.679 137.279 123.533 137.179 123.365C137.08 123.197 137.015 123.011 136.989 122.818L136.858 122.043C136.477 119.755 135.604 117.577 134.299 115.659C132.994 113.741 131.288 112.13 129.299 110.936L128.938 110.721C128.774 110.622 128.631 110.493 128.517 110.339C128.403 110.185 128.32 110.011 128.273 109.825C128.227 109.64 128.217 109.447 128.245 109.258C128.273 109.068 128.338 108.886 128.437 108.722H128.434Z" fill="white"/>
</svg>
