<svg width="22" height="22" viewBox="0 0 22 22" fill="none" xmlns="http://www.w3.org/2000/svg">
<path fill-rule="evenodd" clip-rule="evenodd" d="M10.1022 0.00300523C11.1497 -0.0388942 12.167 0.358867 12.9083 1.10014L20.8999 9.09171C22.3667 10.5586 22.3667 12.9368 20.8999 14.4037L14.4037 20.8999C12.9368 22.3667 10.5586 22.3667 9.09171 20.8999L1.10014 12.9083C0.358868 12.167 -0.0388942 11.1497 0.00300523 10.1022L0.320648 2.16113C0.360626 1.16169 1.16169 0.360626 2.16113 0.320648L10.1022 0.00300523ZM11.4941 2.51436C11.1475 2.16778 10.6719 1.98182 10.1821 2.00141L2.31605 2.31605L2.00141 10.1821C1.98182 10.6719 2.16778 11.1475 2.51436 11.4941L10.5059 19.4857C11.1917 20.1715 12.3036 20.1715 12.9894 19.4857L19.4857 12.9894C20.1715 12.3036 20.1715 11.1917 19.4857 10.5059L11.4941 2.51436ZM6.47432 6.4741C6.86484 6.08358 7.49801 6.08358 7.88853 6.4741L8.80723 7.39281C9.19776 7.78333 9.19776 8.4165 8.80723 8.80702C8.41671 9.19754 7.78354 9.19754 7.39302 8.80702L6.47432 7.88832C6.08379 7.49779 6.08379 6.86463 6.47432 6.4741Z" fill="#878D99"/>
</svg>
