<svg width="28" height="28" viewBox="0 0 28 28" fill="none" xmlns="http://www.w3.org/2000/svg">
<path d="M2.09476 0.91112C2.01728 0.833644 1.9253 0.772188 1.82408 0.730258C1.72285 0.688329 1.61436 0.666748 1.50479 0.666748C1.39522 0.666748 1.28673 0.688329 1.1855 0.730258C1.08428 0.772188 0.992299 0.833644 0.914823 0.91112C0.837348 0.988595 0.775891 1.08057 0.733961 1.1818C0.692032 1.28303 0.670451 1.39152 0.670451 1.50109C0.670451 1.61065 0.692032 1.71915 0.733961 1.82037C0.775891 1.9216 0.837348 2.01358 0.914823 2.09105L6.15953 7.33409H3.16636C2.50336 7.33409 1.86751 7.59747 1.3987 8.06628C0.929881 8.53509 0.666504 9.17094 0.666504 9.83395V18.1668C0.666504 18.8298 0.929881 19.4657 1.3987 19.9345C1.86751 20.4033 2.50336 20.6667 3.16636 20.6667H7.51278C7.72285 20.6665 7.92523 20.7457 8.07942 20.8883L14.5324 26.878C15.599 27.8679 17.3322 27.1113 17.3322 25.6564V18.5068L25.9151 27.0896C26.0715 27.2459 26.2837 27.3336 26.5048 27.3334C26.7259 27.3333 26.9379 27.2453 27.0942 27.0888C27.2504 26.9323 27.3381 26.7202 27.338 26.4991C27.3378 26.278 27.2498 26.0659 27.0933 25.9097L22.8219 21.6399L2.09476 0.91112ZM15.6657 16.8402V25.6564L9.21269 19.6667C8.75038 19.2381 8.1432 19 7.51278 19.0001H3.16636C2.94536 19.0001 2.73341 18.9123 2.57714 18.756C2.42087 18.5998 2.33308 18.3878 2.33308 18.1668V9.83395C2.33308 9.61294 2.42087 9.401 2.57714 9.24473C2.73341 9.08845 2.94536 9.00066 3.16636 9.00066H7.51278C7.61278 9.00066 7.7111 8.99399 7.80776 8.98399L15.6657 16.8402ZM15.6657 2.34437V12.1271L17.3322 13.7937V2.34437C17.3322 0.889455 15.599 0.132831 14.5324 1.12277L9.41267 5.87251L10.5926 7.05244L15.6657 2.34437ZM20.772 17.2335L22.0086 18.4685C22.7823 17.0832 23.1829 15.5207 23.1712 13.9341C23.1595 12.3474 22.7359 10.791 21.942 9.4173C21.8307 9.22748 21.6488 9.08937 21.4361 9.03313C21.2234 8.97688 20.997 9.00707 20.8064 9.11709C20.6159 9.22712 20.4766 9.40805 20.4189 9.62041C20.3613 9.83276 20.39 10.0593 20.4987 10.2506C21.782 12.4721 21.7986 15.077 20.772 17.2335ZM23.8302 20.2917L25.0335 21.4949C26.7044 19.0336 27.5046 16.0843 27.3068 13.1159C27.109 10.1475 25.9246 7.33047 23.9418 5.11255C23.8692 5.02986 23.7809 4.96239 23.682 4.91403C23.5831 4.86567 23.4756 4.83738 23.3657 4.8308C23.2558 4.82422 23.1457 4.83947 23.0418 4.87568C22.9378 4.91189 22.8421 4.96834 22.7601 5.04177C22.6781 5.11519 22.6114 5.20414 22.564 5.30347C22.5165 5.4028 22.4892 5.51055 22.4837 5.62049C22.4781 5.73043 22.4944 5.84038 22.5316 5.94399C22.5687 6.0476 22.6261 6.14282 22.7003 6.22415C24.3983 8.12421 25.428 10.5277 25.632 13.0678C25.836 15.6079 25.2032 18.145 23.8302 20.2917Z" fill="white"/>
</svg>
