<svg width="53" height="44" viewBox="0 0 53 44" fill="none" xmlns="http://www.w3.org/2000/svg">
<path d="M43.004 42.7056H33.2985L43.004 33V42.7056Z" fill="url(#paint0_linear_1192_10487)"/>
<rect x="9.0766" y="8.07959" width="35.6285" height="35.9205" rx="17.8143" fill="url(#paint1_linear_1192_10487)"/>
<circle cx="20.9041" cy="23.1199" r="1.6062" fill="white"/>
<circle cx="26.9396" cy="23.1199" r="1.6062" fill="white"/>
<circle cx="33.0722" cy="23.1199" r="1.6062" fill="white"/>
<path d="M30.1835 31.6385C30.1835 30.5095 31.0987 29.5942 32.2277 29.5942H50.2367C51.3657 29.5942 52.2809 30.5095 52.2809 31.6385V31.6385C52.2809 32.7675 51.3657 33.6828 50.2367 33.6828H32.2277C31.0987 33.6828 30.1835 32.7675 30.1835 31.6385V31.6385Z" fill="#0A3392"/>
<path d="M27.0684 31.5896C27.0684 29.681 28.6156 28.1338 30.5242 28.1338H35.0994C37.008 28.1338 38.5552 29.681 38.5552 31.5896C38.5552 33.4981 37.008 35.0453 35.0994 35.0453H30.5242C28.6156 35.0453 27.0684 33.4981 27.0684 31.5896Z" fill="url(#paint2_linear_1192_10487)"/>
<path fill-rule="evenodd" clip-rule="evenodd" d="M1.92195 33.2743C2.08582 33.7195 2.38768 34.0979 2.77566 34.3577C1.87527 31.7468 1.38633 28.9442 1.38633 26.0274C1.38633 11.9217 12.8213 0.486728 26.927 0.486728C41.0328 0.486728 52.4677 11.9217 52.4677 26.0274C52.4677 27.9894 52.2465 29.8997 51.8277 31.7347H48.2491C48.2922 31.5732 48.3335 31.4109 48.3731 31.248C48.779 29.5743 48.9942 27.826 48.9942 26.0274C48.9942 13.8401 39.1144 3.96026 26.927 3.96026C14.7397 3.96026 4.85986 13.8401 4.85986 26.0274C4.85986 28.5813 5.29368 31.0338 6.09165 33.3153C6.18987 33.0639 6.24377 32.7904 6.24377 32.5042C6.24377 32.3461 6.22731 32.1918 6.196 32.043C5.64304 30.134 5.34659 28.1156 5.34659 26.0274C5.34659 14.1089 15.0085 4.44699 26.927 4.44699C38.8456 4.44699 48.5075 14.1089 48.5075 26.0274C48.5075 27.9583 48.254 29.8293 47.7788 31.6091L47.6153 32.2214H52.2158L52.3022 31.843C52.7291 29.9727 52.9545 28.0261 52.9545 26.0274C52.9545 11.6529 41.3016 0 26.927 0C12.5525 0 0.899597 11.6529 0.899597 26.0274C0.899597 28.5417 1.25625 30.9734 1.92195 33.2743ZM4.88358 34.5577H3.14554C3.41259 34.6709 3.70627 34.7334 4.01456 34.7334C4.32285 34.7334 4.61653 34.6709 4.88358 34.5577Z" fill="#0A3392"/>
<path fill-rule="evenodd" clip-rule="evenodd" d="M4.88569 34.5568H3.14343C3.01429 34.5019 2.89139 34.4352 2.77609 34.358C1.87544 31.7468 1.38635 28.9438 1.38635 26.0265C1.38635 11.9208 12.8213 0.48584 26.9271 0.48584C41.0328 0.48584 52.4678 11.9208 52.4678 26.0265C52.4678 27.9885 52.2465 29.8988 51.8277 31.7338H48.2491C48.7351 29.9133 48.9942 28.0002 48.9942 26.0265C48.9942 13.8392 39.1144 3.95938 26.9271 3.95938C14.7397 3.95938 4.85989 13.8392 4.85989 26.0265C4.85989 28.5805 5.29376 31.0332 6.09183 33.3148C5.87361 33.8736 5.4364 34.3228 4.88569 34.5568Z" fill="#0A3392"/>
<defs>
<linearGradient id="paint0_linear_1192_10487" x1="33.2985" y1="37.8528" x2="43.004" y2="37.8528" gradientUnits="userSpaceOnUse">
<stop stop-color="#0B53F5"/>
<stop offset="1" stop-color="#6695FF"/>
</linearGradient>
<linearGradient id="paint1_linear_1192_10487" x1="9.0766" y1="26.0398" x2="44.7051" y2="26.0398" gradientUnits="userSpaceOnUse">
<stop stop-color="#0B53F5"/>
<stop offset="1" stop-color="#6695FF"/>
</linearGradient>
<linearGradient id="paint2_linear_1192_10487" x1="27.0684" y1="31.6382" x2="38.5552" y2="31.6382" gradientUnits="userSpaceOnUse">
<stop stop-color="#FFC700"/>
<stop offset="1" stop-color="#FFE975"/>
</linearGradient>
</defs>
</svg>
