<svg width="17" height="14" viewBox="0 0 17 14" fill="none" xmlns="http://www.w3.org/2000/svg">
<path fill-rule="evenodd" clip-rule="evenodd" d="M2.22837 2.22703C4.86441 -0.40901 9.13828 -0.40901 11.7743 2.22703C12.0379 2.49063 12.0379 2.91802 11.7743 3.18162C11.5107 3.44523 11.0833 3.44523 10.8197 3.18162C8.71089 1.07279 5.2918 1.07279 3.18297 3.18162C1.07413 5.29045 1.07413 8.70955 3.18297 10.8184C5.2918 12.9272 8.71089 12.9272 10.8197 10.8184C11.0833 10.5548 11.5107 10.5548 11.7743 10.8184C12.0379 11.082 12.0379 11.5094 11.7743 11.773C9.13828 14.409 4.86441 14.409 2.22837 11.773C-0.407667 9.13693 -0.407667 4.86307 2.22837 2.22703ZM13.3029 4.47066C13.5815 4.22299 14.0082 4.24809 14.2559 4.52672L16.0559 6.55172C16.2832 6.80747 16.2832 7.19286 16.0559 7.44861L14.2559 9.47361C14.0082 9.75224 13.5815 9.77734 13.3029 9.52967C13.0243 9.282 12.9992 8.85535 13.2469 8.57672L14.0482 7.67516H7.00135C6.62856 7.67516 6.32635 7.37296 6.32635 7.00016C6.32635 6.62737 6.62856 6.32516 7.00135 6.32516H14.0482L13.2469 5.42361C12.9992 5.14498 13.0243 4.71833 13.3029 4.47066Z" fill="#4880FF"/>
</svg>
