<svg width="24" height="24" viewBox="0 0 24 24" fill="none" xmlns="http://www.w3.org/2000/svg">
<path d="M19.1774 11.3423H17.9236C17.9236 12.4707 17.6101 13.5365 17.0459 14.4768L17.9863 15.4172C18.7386 14.1634 19.1147 12.7842 19.1774 11.3423Z" fill="#85899D"/>
<path d="M16.0428 11.3425V6.32716C16.0428 3.88221 14.0367 1.93878 11.5918 2.00148C9.77373 2.00148 8.08107 3.19261 7.51685 4.94796L15.6667 13.0978C15.9175 12.5336 16.0428 11.9067 16.0428 11.3425Z" fill="#85899D"/>
<path d="M16.1682 17.3608L20.4939 21.6865L21.3716 20.8088L2.87768 2.31494L2 3.19262L7.26605 8.45867V11.3425C7.26605 13.7874 9.20948 15.7308 11.6544 15.7308C12.4694 15.7308 13.2217 15.5428 13.9113 15.1039L15.2905 16.4831C14.2248 17.2354 12.9709 17.6116 11.6544 17.6116C8.26911 17.737 5.5107 15.0412 5.38532 11.7186V11.3425H4.1315C4.19419 15.2293 7.14067 18.4893 11.0275 18.8654V20.7461H9.14679C8.77064 20.7461 8.51988 20.9969 8.51988 21.373C8.51988 21.7492 8.77064 22 9.14679 22H14.1621C14.5382 22 14.789 21.7492 14.789 21.373C14.789 20.9969 14.5382 20.7461 14.1621 20.7461H12.2813V18.8654C13.6605 18.74 15.0398 18.2385 16.1682 17.3608Z" fill="#85899D"/>
</svg>
