<svg width="24" height="24" viewBox="0 0 24 24" fill="none" xmlns="http://www.w3.org/2000/svg">
<path d="M11.5 15.75C13.9375 15.75 15.875 13.8125 15.875 11.375V6.375C15.875 3.9375 13.9375 2 11.5 2C9.0625 2 7.125 3.9375 7.125 6.375V11.375C7.125 13.8125 9.0625 15.75 11.5 15.75Z" fill="#85899D"/>
<path d="M19 11.375H17.75C17.75 14.8125 14.9375 17.625 11.5 17.625C8.0625 17.625 5.25 14.8125 5.25 11.375H4C4 15.3125 7 18.5 10.875 18.8125V20.75H9C8.625 20.75 8.375 21 8.375 21.375C8.375 21.75 8.625 22 9 22H14C14.375 22 14.625 21.75 14.625 21.375C14.625 21 14.375 20.75 14 20.75H12.125V18.8125C16 18.5 19 15.3125 19 11.375Z" fill="#85899D"/>
</svg>
