<svg width="36" height="36" viewBox="0 0 36 36" fill="none" xmlns="http://www.w3.org/2000/svg">
<path d="M0 18C0 8.05888 8.05888 0 18 0C27.9411 0 36 8.05888 36 18C36 27.9411 27.9411 36 18 36C8.05888 36 0 27.9411 0 18Z" fill="#FFF5F5"/>
<path d="M20.2218 20.8116L21.3706 19.6629C21.5243 19.5091 21.7199 19.4038 21.9329 19.36C22.1459 19.3163 22.3671 19.336 22.5691 19.4167L23.9681 19.9767C24.1743 20.0592 24.351 20.2016 24.4755 20.3855C24.6 20.5695 24.6666 20.7865 24.6666 21.0086V23.5527C24.6669 23.704 24.6364 23.8537 24.5769 23.9927C24.5174 24.1317 24.4302 24.2571 24.3205 24.3612C24.2109 24.4654 24.0811 24.546 23.9392 24.5983C23.7973 24.6505 23.6463 24.6733 23.4953 24.6651C13.6888 24.0548 11.7082 15.7489 11.3405 12.5683C11.3227 12.4128 11.338 12.2553 11.3854 12.1061C11.4329 11.957 11.5113 11.8196 11.6157 11.7029C11.72 11.5863 11.8479 11.493 11.9909 11.4293C12.1338 11.3656 12.2887 11.3329 12.4452 11.3334H14.9442C15.1663 11.3334 15.3833 11.3999 15.5672 11.5244C15.7511 11.6489 15.8935 11.8257 15.976 12.0319L16.5356 13.4309C16.6163 13.6328 16.636 13.854 16.5923 14.0671C16.5485 14.2801 16.4432 14.4756 16.2894 14.6294L15.1406 15.7781C15.1406 15.7781 15.7776 20.2562 20.2218 20.8116Z" fill="#E75151"/>
<path d="M23.6409 16.4617V15.4361H21.289L24.6666 12.0585L23.9414 11.3334L20.5639 14.7109V12.359H19.5382V16.4617H23.6409Z" fill="#E75151"/>
</svg>
