<svg width="22" height="22" viewBox="0 0 22 22" fill="none" xmlns="http://www.w3.org/2000/svg">
<g clip-path="url(#clip0_618_5877)">
<mask id="path-1-outside-1_618_5877" maskUnits="userSpaceOnUse" x="-0.0833435" y="5.41699" width="21" height="11" fill="black">
<rect fill="white" x="-0.0833435" y="5.41699" width="21" height="11"/>
<path d="M18.0135 9.26226C18.9874 9.72801 19.4409 10.8564 19.1697 12.0322L18.8159 13.566C18.7574 13.8194 18.6045 14.041 18.3883 14.1855C18.172 14.3301 17.9088 14.3867 17.6523 14.3438L15.0809 13.9157C14.9604 13.8956 14.8486 13.84 14.76 13.756C14.6713 13.672 14.6098 13.5634 14.5832 13.4442L13.9459 10.5737C13.9228 10.4705 13.8735 10.3751 13.8026 10.2966C13.7317 10.2181 13.6418 10.1593 13.5414 10.1259L13.3478 10.7069L13.5414 10.1259H13.5406L13.539 10.1251L13.5349 10.1235L13.521 10.1186C13.2448 10.0345 12.9651 9.96252 12.6827 9.90287C12.0283 9.76285 11.3613 9.69002 10.6922 9.68552C9.92166 9.68552 9.21322 9.79501 8.70172 9.90287C8.41925 9.96251 8.13953 10.0345 7.86337 10.1186L7.84947 10.1235L7.84539 10.1251H7.84294L8.03659 10.7069L7.84294 10.1259C7.74262 10.1593 7.65265 10.2181 7.58178 10.2966C7.5109 10.3751 7.46153 10.4705 7.43847 10.5737L6.80113 13.4442C6.77456 13.5635 6.71289 13.6722 6.62407 13.7562C6.53525 13.8402 6.42333 13.8958 6.30269 13.9157L3.73126 14.3438C3.47486 14.3865 3.21184 14.3297 2.99581 14.1852C2.77977 14.0407 2.62696 13.8192 2.56852 13.566L2.21798 12.0486C1.94507 10.8662 2.40591 9.73046 3.38889 9.26635C4.98552 8.51134 7.50057 7.65338 10.6938 7.64276C13.8977 7.63213 16.4193 8.4999 18.0135 9.26226V9.26226ZM12.8281 11.1955L13.387 13.7098C13.4666 14.0675 13.6512 14.3932 13.9172 14.6452C14.1832 14.8972 14.5184 15.064 14.8799 15.1242L17.4513 15.5532C18.0154 15.647 18.5941 15.5223 19.0694 15.2044C19.5447 14.8865 19.881 14.3993 20.0096 13.8421L20.3643 12.3076C20.7352 10.7004 20.1437 8.92234 18.5421 8.15672C16.8229 7.33389 14.1199 6.40566 10.6897 6.4171C7.2775 6.42854 4.58432 7.34533 2.86513 8.15753C1.25134 8.92071 0.65077 10.7069 1.02337 12.324L1.37473 13.8421C1.50338 14.3992 1.83951 14.8862 2.31467 15.2041C2.78984 15.522 3.3683 15.6468 3.93227 15.5532L6.50452 15.1242C6.86582 15.0639 7.20088 14.897 7.46672 14.645C7.73256 14.393 7.91706 14.0673 7.99655 13.7098L8.55545 11.1955C9.25382 11.0159 9.97115 10.9205 10.6922 10.9112C11.3516 10.9112 11.9718 11.006 12.4302 11.1024C12.5838 11.1351 12.7186 11.1678 12.8281 11.1955V11.1955Z"/>
</mask>
<path d="M18.0135 9.26226C18.9874 9.72801 19.4409 10.8564 19.1697 12.0322L18.8159 13.566C18.7574 13.8194 18.6045 14.041 18.3883 14.1855C18.172 14.3301 17.9088 14.3867 17.6523 14.3438L15.0809 13.9157C14.9604 13.8956 14.8486 13.84 14.76 13.756C14.6713 13.672 14.6098 13.5634 14.5832 13.4442L13.9459 10.5737C13.9228 10.4705 13.8735 10.3751 13.8026 10.2966C13.7317 10.2181 13.6418 10.1593 13.5414 10.1259L13.3478 10.7069L13.5414 10.1259H13.5406L13.539 10.1251L13.5349 10.1235L13.521 10.1186C13.2448 10.0345 12.9651 9.96252 12.6827 9.90287C12.0283 9.76285 11.3613 9.69002 10.6922 9.68552C9.92166 9.68552 9.21322 9.79501 8.70172 9.90287C8.41925 9.96251 8.13953 10.0345 7.86337 10.1186L7.84947 10.1235L7.84539 10.1251H7.84294L8.03659 10.7069L7.84294 10.1259C7.74262 10.1593 7.65265 10.2181 7.58178 10.2966C7.5109 10.3751 7.46153 10.4705 7.43847 10.5737L6.80113 13.4442C6.77456 13.5635 6.71289 13.6722 6.62407 13.7562C6.53525 13.8402 6.42333 13.8958 6.30269 13.9157L3.73126 14.3438C3.47486 14.3865 3.21184 14.3297 2.99581 14.1852C2.77977 14.0407 2.62696 13.8192 2.56852 13.566L2.21798 12.0486C1.94507 10.8662 2.40591 9.73046 3.38889 9.26635C4.98552 8.51134 7.50057 7.65338 10.6938 7.64276C13.8977 7.63213 16.4193 8.4999 18.0135 9.26226V9.26226ZM12.8281 11.1955L13.387 13.7098C13.4666 14.0675 13.6512 14.3932 13.9172 14.6452C14.1832 14.8972 14.5184 15.064 14.8799 15.1242L17.4513 15.5532C18.0154 15.647 18.5941 15.5223 19.0694 15.2044C19.5447 14.8865 19.881 14.3993 20.0096 13.8421L20.3643 12.3076C20.7352 10.7004 20.1437 8.92234 18.5421 8.15672C16.8229 7.33389 14.1199 6.40566 10.6897 6.4171C7.2775 6.42854 4.58432 7.34533 2.86513 8.15753C1.25134 8.92071 0.65077 10.7069 1.02337 12.324L1.37473 13.8421C1.50338 14.3992 1.83951 14.8862 2.31467 15.2041C2.78984 15.522 3.3683 15.6468 3.93227 15.5532L6.50452 15.1242C6.86582 15.0639 7.20088 14.897 7.46672 14.645C7.73256 14.393 7.91706 14.0673 7.99655 13.7098L8.55545 11.1955C9.25382 11.0159 9.97115 10.9205 10.6922 10.9112C11.3516 10.9112 11.9718 11.006 12.4302 11.1024C12.5838 11.1351 12.7186 11.1678 12.8281 11.1955V11.1955Z" fill="#545B7B"/>
<path d="M18.0135 9.26226C18.9874 9.72801 19.4409 10.8564 19.1697 12.0322L18.8159 13.566C18.7574 13.8194 18.6045 14.041 18.3883 14.1855C18.172 14.3301 17.9088 14.3867 17.6523 14.3438L15.0809 13.9157C14.9604 13.8956 14.8486 13.84 14.76 13.756C14.6713 13.672 14.6098 13.5634 14.5832 13.4442L13.9459 10.5737C13.9228 10.4705 13.8735 10.3751 13.8026 10.2966C13.7317 10.2181 13.6418 10.1593 13.5414 10.1259L13.3478 10.7069L13.5414 10.1259H13.5406L13.539 10.1251L13.5349 10.1235L13.521 10.1186C13.2448 10.0345 12.9651 9.96252 12.6827 9.90287C12.0283 9.76285 11.3613 9.69002 10.6922 9.68552C9.92166 9.68552 9.21322 9.79501 8.70172 9.90287C8.41925 9.96251 8.13953 10.0345 7.86337 10.1186L7.84947 10.1235L7.84539 10.1251H7.84294L8.03659 10.7069L7.84294 10.1259C7.74262 10.1593 7.65265 10.2181 7.58178 10.2966C7.5109 10.3751 7.46153 10.4705 7.43847 10.5737L6.80113 13.4442C6.77456 13.5635 6.71289 13.6722 6.62407 13.7562C6.53525 13.8402 6.42333 13.8958 6.30269 13.9157L3.73126 14.3438C3.47486 14.3865 3.21184 14.3297 2.99581 14.1852C2.77977 14.0407 2.62696 13.8192 2.56852 13.566L2.21798 12.0486C1.94507 10.8662 2.40591 9.73046 3.38889 9.26635C4.98552 8.51134 7.50057 7.65338 10.6938 7.64276C13.8977 7.63213 16.4193 8.4999 18.0135 9.26226V9.26226ZM12.8281 11.1955L13.387 13.7098C13.4666 14.0675 13.6512 14.3932 13.9172 14.6452C14.1832 14.8972 14.5184 15.064 14.8799 15.1242L17.4513 15.5532C18.0154 15.647 18.5941 15.5223 19.0694 15.2044C19.5447 14.8865 19.881 14.3993 20.0096 13.8421L20.3643 12.3076C20.7352 10.7004 20.1437 8.92234 18.5421 8.15672C16.8229 7.33389 14.1199 6.40566 10.6897 6.4171C7.2775 6.42854 4.58432 7.34533 2.86513 8.15753C1.25134 8.92071 0.65077 10.7069 1.02337 12.324L1.37473 13.8421C1.50338 14.3992 1.83951 14.8862 2.31467 15.2041C2.78984 15.522 3.3683 15.6468 3.93227 15.5532L6.50452 15.1242C6.86582 15.0639 7.20088 14.897 7.46672 14.645C7.73256 14.393 7.91706 14.0673 7.99655 13.7098L8.55545 11.1955C9.25382 11.0159 9.97115 10.9205 10.6922 10.9112C11.3516 10.9112 11.9718 11.006 12.4302 11.1024C12.5838 11.1351 12.7186 11.1678 12.8281 11.1955V11.1955Z" stroke="#545B7B" stroke-width="0.2" mask="url(#path-1-outside-1_618_5877)"/>
<path fill-rule="evenodd" clip-rule="evenodd" d="M17.8373 1.74578C18.1674 1.94983 18.2695 2.3828 18.0655 2.71286L7.55096 19.7214C7.34692 20.0514 6.91394 20.1536 6.58388 19.9496C6.25382 19.7455 6.15166 19.3125 6.3557 18.9825L16.8702 1.97396C17.0743 1.6439 17.5072 1.54174 17.8373 1.74578Z" fill="#545B7B"/>
<path fill-rule="evenodd" clip-rule="evenodd" d="M19.7835 1.2868C20.1136 1.49084 20.2158 1.92382 20.0117 2.25388L8.12681 21.4791C7.92277 21.8092 7.48979 21.9114 7.15973 21.7073C6.82967 21.5033 6.72751 21.0703 6.93155 20.7402L18.8165 1.51498C19.0205 1.18492 19.4535 1.08276 19.7835 1.2868Z" fill="white"/>
</g>
<defs>
<clipPath id="clip0_618_5877">
<rect width="22" height="22" fill="white"/>
</clipPath>
</defs>
</svg>
