<svg width="24" height="24" viewBox="0 0 24 24" fill="none" xmlns="http://www.w3.org/2000/svg">
<path d="M14.5065 3.2532C14.5065 2.16138 13.2059 1.59359 12.4054 2.33648L7.56291 6.83007C7.44739 6.93759 7.2955 6.99746 7.13769 6.99766H3.87598C3.37844 6.99766 2.90128 7.19531 2.54946 7.54712C2.19765 7.89894 2 8.3761 2 8.87364V15.1269C2 15.6245 2.19765 16.1016 2.54946 16.4534C2.90128 16.8052 3.37844 17.0029 3.87598 17.0029H7.13644C7.29408 17.0028 7.44595 17.0622 7.56166 17.1692L12.4054 21.6641C13.2059 22.4057 14.5065 21.8392 14.5065 20.7474V3.2532ZM18.5762 5.28051C18.6374 5.22582 18.7089 5.18373 18.7864 5.15664C18.8639 5.12956 18.946 5.11801 19.028 5.12265C19.11 5.1273 19.1903 5.14805 19.2642 5.18372C19.3382 5.21939 19.4044 5.26928 19.4591 5.33054C21.0996 7.16486 22.0065 9.53941 22.0065 12.0003C22.0065 14.4611 21.0996 16.8357 19.4591 18.67C19.4046 18.7321 19.3383 18.7827 19.2641 18.819C19.1899 18.8553 19.1092 18.8765 19.0268 18.8815C18.9443 18.8864 18.8617 18.8749 18.7837 18.8478C18.7057 18.8206 18.6338 18.7782 18.5723 18.7231C18.5107 18.668 18.4607 18.6013 18.4251 18.5267C18.3895 18.4522 18.369 18.3713 18.3649 18.2888C18.3607 18.2063 18.3729 18.1238 18.4008 18.0461C18.4287 17.9683 18.4717 17.8969 18.5274 17.8358C19.9629 16.2308 20.7565 14.153 20.7565 11.9997C20.7565 9.84632 19.9629 7.76852 18.5274 6.16348C18.4168 6.03992 18.3598 5.87748 18.3689 5.71189C18.3781 5.54631 18.4526 5.39114 18.5762 5.28051ZM17.1066 15.6684C17.0354 15.6275 16.973 15.5729 16.9229 15.5078C16.8728 15.4427 16.836 15.3684 16.8146 15.289C16.7932 15.2097 16.7877 15.1269 16.7983 15.0455C16.8089 14.964 16.8355 14.8854 16.8765 14.8142C17.3707 13.9588 17.6309 12.9882 17.6309 12.0003C17.6309 11.0123 17.3707 10.0418 16.8765 9.18631C16.8313 9.11513 16.8009 9.03554 16.7872 8.95232C16.7735 8.8691 16.7768 8.78398 16.7969 8.70206C16.8169 8.62015 16.8534 8.54314 16.904 8.47566C16.9546 8.40819 17.0183 8.35165 17.0913 8.30944C17.1643 8.26724 17.2451 8.24024 17.3288 8.23007C17.4126 8.2199 17.4975 8.22677 17.5785 8.25027C17.6595 8.27377 17.7349 8.31341 17.8002 8.3668C17.8654 8.4202 17.9193 8.48625 17.9583 8.56098C18.5625 9.60647 18.8807 10.7926 18.8809 12.0001C18.8811 13.2076 18.5634 14.3939 17.9596 15.4396C17.8767 15.5829 17.7403 15.6874 17.5804 15.7303C17.4205 15.7732 17.2502 15.751 17.1066 15.6684Z" fill="#85899D"/>
</svg>
