<svg width="24" height="24" viewBox="0 0 24 24" fill="none" xmlns="http://www.w3.org/2000/svg">
<path d="M3.07119 2.18328C3.01308 2.12517 2.9441 2.07908 2.86818 2.04763C2.79226 2.01619 2.71089 2 2.62871 2C2.54654 2 2.46517 2.01619 2.38925 2.04763C2.31333 2.07908 2.24435 2.12517 2.18624 2.18328C2.12813 2.24139 2.08204 2.31037 2.05059 2.38629C2.01915 2.46221 2.00296 2.54358 2.00296 2.62575C2.00296 2.70793 2.01915 2.7893 2.05059 2.86522C2.08204 2.94114 2.12813 3.01012 2.18624 3.06823L6.11977 7.0005H3.87489C3.37764 7.0005 2.90075 7.19804 2.54914 7.54965C2.19753 7.90126 2 8.37815 2 8.8754V15.125C2 15.6223 2.19753 16.0992 2.54914 16.4508C2.90075 16.8024 3.37764 16.9999 3.87489 16.9999H7.13471C7.29226 16.9998 7.44404 17.0592 7.55968 17.1662L12.3994 21.6584C13.1994 22.4009 14.4993 21.8334 14.4993 20.7422V15.38L20.9364 21.8172C21.0538 21.9343 21.2129 22.0001 21.3787 22C21.5446 21.9999 21.7036 21.9339 21.8207 21.8165C21.9379 21.6992 22.0037 21.5401 22.0036 21.3742C22.0035 21.2084 21.9375 21.0494 21.8201 20.9322L18.6166 17.7299L3.07119 2.18328ZM13.2494 14.1301V20.7422L8.40964 16.25C8.0629 15.9285 7.60752 15.7499 7.13471 15.75H3.87489C3.70914 15.75 3.55018 15.6842 3.43298 15.567C3.31577 15.4498 3.24993 15.2908 3.24993 15.125V8.8754C3.24993 8.70965 3.31577 8.55069 3.43298 8.43348C3.55018 8.31628 3.70914 8.25043 3.87489 8.25043H7.13471C7.2097 8.25043 7.28345 8.24543 7.35595 8.23793L13.2494 14.1301ZM13.2494 3.25822V10.5953L14.4993 11.8452V3.25822C14.4993 2.16703 13.1994 1.59956 12.3994 2.34202L8.55963 5.90432L9.44458 6.78927L13.2494 3.25822ZM17.0791 14.4251L18.0066 15.3513C18.5868 14.3123 18.8873 13.1405 18.8785 11.9505C18.8698 10.7605 18.5521 9.59322 17.9566 8.56292C17.8731 8.42055 17.7367 8.31697 17.5772 8.27478C17.4176 8.2326 17.2479 8.25524 17.105 8.33776C16.962 8.42028 16.8576 8.55598 16.8143 8.71524C16.7711 8.87451 16.7926 9.04441 16.8742 9.18788C17.8366 10.854 17.8491 12.8077 17.0791 14.4251ZM19.3728 16.7187L20.2752 17.6212C21.5284 15.7751 22.1285 13.5631 21.9802 11.3369C21.8318 9.11059 20.9435 6.99779 19.4565 5.33435C19.402 5.27233 19.3358 5.22173 19.2616 5.18546C19.1874 5.14919 19.1068 5.12797 19.0244 5.12304C18.942 5.1181 18.8594 5.12954 18.7815 5.1567C18.7035 5.18386 18.6317 5.2262 18.5702 5.28126C18.5087 5.33633 18.4587 5.40304 18.4231 5.47754C18.3875 5.55204 18.3671 5.63285 18.3629 5.71531C18.3587 5.79776 18.3709 5.88022 18.3988 5.95793C18.4267 6.03564 18.4697 6.10706 18.5253 6.16805C19.7989 7.59309 20.5711 9.39574 20.7241 11.3008C20.8771 13.2059 20.4025 15.1087 19.3728 16.7187Z" fill="#85899D"/>
</svg>
