<svg width="98" height="83" viewBox="0 0 98 83" fill="none" xmlns="http://www.w3.org/2000/svg">
<path d="M79.267 80.3989H60.995L79.267 62.127V80.3989Z" fill="white"/>
<path fill-rule="evenodd" clip-rule="evenodd" d="M48.9319 15.2109C30.4096 15.2109 15.3943 30.5012 15.3943 49.0235C15.3943 67.5458 30.4096 82.836 48.9319 82.836C67.4542 82.836 82.4695 67.5458 82.4695 49.0235C82.4695 30.5012 67.4542 15.2109 48.9319 15.2109ZM37.661 46.5501C39.331 46.5501 40.6849 45.1962 40.6849 43.5262C40.6849 41.8561 39.331 40.5023 37.661 40.5023C35.991 40.5023 34.6371 41.8561 34.6371 43.5262C34.6371 45.1962 35.991 46.5501 37.661 46.5501ZM52.0475 43.5262C52.0475 45.1962 50.6937 46.5501 49.0236 46.5501C47.3536 46.5501 45.9997 45.1962 45.9997 43.5262C45.9997 41.8561 47.3536 40.5023 49.0236 40.5023C50.6937 40.5023 52.0475 41.8561 52.0475 43.5262ZM60.5691 46.5501C62.2392 46.5501 63.593 45.1962 63.593 43.5262C63.593 41.8561 62.2392 40.5023 60.5691 40.5023C58.8991 40.5023 57.5453 41.8561 57.5453 43.5262C57.5453 45.1962 58.8991 46.5501 60.5691 46.5501Z" fill="white"/>
<path d="M55.1306 59.5634C55.1306 57.4379 56.8537 55.7148 58.9792 55.7148H92.8834C95.0089 55.7148 96.732 57.4379 96.732 59.5634V59.5634C96.732 61.6889 95.0089 63.412 92.8834 63.412H58.9792C56.8537 63.412 55.1306 61.6889 55.1306 59.5634V59.5634Z" fill="#0A3392"/>
<path d="M49.2661 59.4713C49.2661 55.8781 52.1789 52.9653 55.7721 52.9653H64.3856C67.9787 52.9653 70.8915 55.8781 70.8915 59.4713C70.8915 63.0644 67.9787 65.9772 64.3856 65.9772H55.7721C52.1789 65.9772 49.2661 63.0644 49.2661 59.4713Z" fill="url(#paint0_linear_1192_10529)"/>
<path fill-rule="evenodd" clip-rule="evenodd" d="M1.92491 62.6439C2.23348 63.4818 2.8017 64.194 3.53199 64.6831C1.83684 59.7676 0.916329 54.4913 0.916329 49C0.916329 22.4441 22.4441 0.916329 49 0.916329C75.5559 0.916329 97.0837 22.4441 97.0837 49C97.0837 52.6936 96.6672 56.29 95.8787 59.7446H89.1415C89.2226 59.4406 89.3005 59.1351 89.3749 58.8283C90.1392 55.6774 90.5443 52.386 90.5443 49C90.5443 26.0557 71.9443 7.45571 49 7.45571C26.0557 7.45571 7.45571 26.0557 7.45571 49C7.45571 53.8079 8.27244 58.4251 9.77472 62.7203C9.95961 62.2471 10.0611 61.7322 10.0611 61.1935C10.0611 60.8956 10.0301 60.6049 9.97103 60.3246C8.9301 56.7308 8.37204 52.9311 8.37204 49C8.37204 26.5618 26.5618 8.37204 49 8.37204C71.4382 8.37204 89.628 26.5618 89.628 49C89.628 52.6351 89.1508 56.1574 88.2561 59.5083L87.9484 60.661H96.6094L96.772 59.9485C97.5757 56.4274 98 52.7627 98 49C98 21.938 76.0619 0 49 0C21.938 0 0 21.938 0 49C0 53.7337 0.671513 58.312 1.92491 62.6439ZM7.50062 65.0593H4.22799C4.73082 65.2724 5.2838 65.3903 5.86431 65.3903C6.44481 65.3903 6.99779 65.2724 7.50062 65.0593Z" fill="#0A3392"/>
<path fill-rule="evenodd" clip-rule="evenodd" d="M7.50481 65.0575H4.22374C3.98085 64.9543 3.74969 64.8288 3.53282 64.6836C1.83715 59.7675 0.916344 54.4904 0.916344 48.9982C0.916344 22.4423 22.4441 0.914551 49 0.914551C75.5559 0.914551 97.0837 22.4423 97.0837 48.9982C97.0837 52.6918 96.6672 56.2882 95.8787 59.7428H89.1415C90.0565 56.3156 90.5443 52.7139 90.5443 48.9982C90.5443 26.0539 71.9443 7.45393 49 7.45393C26.0557 7.45393 7.45572 26.0539 7.45572 48.9982C7.45572 53.8065 8.27256 58.4239 9.77505 62.7194C9.3643 63.7713 8.54138 64.6169 7.50481 65.0575Z" fill="#0A3392"/>
<defs>
<linearGradient id="paint0_linear_1192_10529" x1="49.2661" y1="59.5629" x2="70.8915" y2="59.5629" gradientUnits="userSpaceOnUse">
<stop stop-color="#FFC700"/>
<stop offset="1" stop-color="#FFE975"/>
</linearGradient>
</defs>
</svg>
