<svg width="326" height="235" viewBox="0 0 326 235" fill="none" xmlns="http://www.w3.org/2000/svg">
<path opacity="0.4" fill-rule="evenodd" clip-rule="evenodd" d="M150.959 36.715C181.951 33.9568 214.977 26.2495 242.422 36.4852C270.947 47.1237 291.111 68.5078 295.328 90.5585C299.291 111.279 274.898 128.314 263.701 147.754C253.444 165.563 252.854 186.399 232.549 199.559C210.885 213.6 180.738 219.62 150.959 220.824C119.8 222.083 88.088 218.242 62.0564 206.451C35.2783 194.321 14.7347 176.084 5.64156 155.001C-3.30205 134.265 -0.545642 111.55 12.6527 91.9073C24.962 73.5881 49.8356 61.5148 75.2813 51.3604C98.4974 42.0959 124.311 39.0866 150.959 36.715Z" fill="#F3DCDB"/>
<path d="M277.001 218.349C278.745 213.545 265.088 208.373 262.066 212.014C258.734 209.748 255.382 207.152 253.019 203.82C256.486 201.999 259.722 199.81 262.86 197.485C266.792 201.612 272.895 203.123 278.183 204.808C277.699 210.581 294.611 210.891 294.591 205.273C294.746 200.275 280.856 199.5 278.667 203.568C273.611 201.98 267.761 200.546 263.925 196.711C267.315 194.173 270.589 191.48 273.921 188.865C277.641 191.286 282.019 192.352 286.436 192.352C288.218 196.672 302.573 196.497 302.514 191.383C302.631 185.901 286.416 185.533 286.106 190.957C282.271 190.86 278.512 190.105 275.025 188.012C279.694 184.409 284.595 180.98 289.961 178.501C292.886 182.395 306.796 176.641 304.762 171.798C302.805 166.723 288.198 172.263 289.361 177.319C284.169 179.741 279.404 182.995 274.812 186.482C275.394 181.232 276.943 176.079 278.667 171.101C283.22 170.694 288.198 157.753 283.627 155.855C278.532 153.511 271.829 169.163 277.273 171.062C275.587 176.37 273.611 181.872 273.514 187.489C270.105 190.124 266.792 192.855 263.344 195.451C262.395 190.066 262.337 184.584 263.15 179.218C267.819 178.617 271.015 164.417 266.076 163.236C260.748 161.783 256.68 177.59 261.814 179.179C261.097 184.758 260.806 190.783 262.279 196.265C259.024 198.686 255.615 200.972 252.011 202.832C250.345 198.047 249.493 193.049 249.571 187.954C253.813 186.269 254.82 172.321 249.881 171.837C244.34 171.12 242.519 188.032 248.253 188.284C248.253 193.398 248.97 198.628 250.888 203.375C247.595 205.021 244.166 206.416 240.64 207.54C239.943 205.35 239.323 203.123 238.974 200.837C242.868 198.667 243.662 185.455 238.877 184.99C233.317 184.08 231.361 202.212 237.734 201.418C238.102 203.626 238.645 205.815 239.4 207.946C234.247 209.535 228.959 210.717 223.67 211.743C219.718 215.366 239.09 209.341 240.272 209.07C241.318 210.697 242.442 212.286 243.74 213.739C240.601 218.717 255.983 226.427 258.365 221.332C260.613 216.935 248.505 210.271 244.747 212.867C243.585 211.55 242.538 210.116 241.589 208.644C245.096 207.481 248.524 206.106 251.818 204.44C254.162 208.024 257.823 210.794 261.329 213.177C259.935 218.31 275.277 223.599 277.001 218.349Z" fill="#F3DCDB"/>
<path d="M67.7638 159.302C64.858 159.612 64.0637 164.029 66.059 166.179C70.6115 170.713 77.4692 166.393 82.8934 166.741C82.4284 181.735 105.578 176.892 113.133 170.654C114.509 164.436 119.7 150.004 113.579 143.456C110.944 140.356 105.927 139.136 102.73 141.616C100.115 136.153 97.8873 128.927 92.0176 126.312C88.9568 125.169 84.695 126.874 84.4431 130.147C82.9515 123.522 77.566 115.483 70.534 114.243C67.1245 114.01 63.5213 117.497 64.8773 120.597C58.7364 117.556 51.4525 117.982 44.711 119.183C39.7905 120.055 34.8894 121.333 29.9301 121.876C28.4966 122.031 28.1673 123.987 29.4652 124.607C46.377 130.767 40.5848 143.514 51.8787 146.459C48.7404 146.652 44.866 148.822 45.2147 152.367C47.2875 159.419 61.5841 159.67 67.7638 159.302Z" fill="#CDCEE7"/>
<path d="M112.707 171.101C109.956 169.668 107.127 168.021 104.28 166.219C101.723 166.122 99.2237 166.355 96.7828 166.994C96.2985 168.757 95.6205 171.237 93.5864 172.36C93.0053 172.573 92.5597 171.682 93.1215 171.372C94.4775 170.52 95.0587 169.048 95.543 167.304C93.1409 167.905 89.6733 170.481 87.6586 168.06C87.4261 167.769 87.5811 167.343 87.9298 167.246C88.1622 167.169 88.4141 167.246 88.5691 167.42C89.2664 168.292 90.545 167.982 91.2811 167.73C94.865 166.181 98.6232 165.115 102.575 165.096C96.0273 160.795 89.6151 155.72 82.9705 150.47C80.9558 150.586 79.0767 151.729 77.3333 152.698C76.9652 154.945 74.5824 156.436 74.9118 158.819C74.9699 159.11 74.8149 159.381 74.5243 159.478C72.1803 158.703 75.3573 154.77 75.9191 153.414C74.6793 154.538 67.6279 155.042 69.3907 152.794C73.5944 154.848 77.682 150.47 81.7501 149.54C75.0474 144.232 69.1195 139.641 62.5136 135.398C61.2351 135.379 59.5884 136.038 58.4842 136.619C57.2832 138.169 58.2324 140.299 57.5738 141.907C57.1476 142.566 56.4695 144.232 55.6365 143.38C55.5009 143.167 55.5009 142.915 55.6753 142.721C57.3607 141.384 56.3533 139.215 56.9345 137.432C56.0627 138.537 48.4108 139.97 50.4255 137.587C54.203 138.788 57.535 135.243 61.0801 134.468C56.9345 131.718 49.7281 128.056 44.9044 128.657C44.0327 128.482 42.5798 129.529 41.9986 128.676C42.1148 127.185 45.1369 127.708 46.3186 127.533C46.0474 126.429 44.7882 125.732 44.5364 124.705C45.5437 123.155 47.171 126.758 47.539 127.611C49.67 127.824 51.8977 128.463 54.358 129.548C53.2538 125.964 53.7381 125.48 51.0454 123.407C51.026 123.039 51.3747 122.748 51.7234 122.865C55.1135 123.814 54.358 128.018 56.0046 130.323C61.5644 133.229 65.187 135.747 70.5918 139.602C68.8289 135.224 72.3934 130.342 68.9452 126.913C68.9645 126.526 69.3907 126.255 69.7394 126.448C72.4128 127.921 71.5216 131.35 71.3279 133.79C73.052 132.551 73.6138 129.839 76.016 129.315C76.6746 128.986 77.1202 130.11 76.4228 130.342C74.0206 130.827 73.6913 134.352 71.2311 134.991C71.1148 136.774 71.2117 138.808 72.1803 140.551C72.2771 140.648 72.374 140.803 72.4321 140.958C80.2391 146.75 86.0313 151.671 93.4508 157.289C91.8236 151.148 94.865 142.527 89.3827 138.052C89.3827 137.684 89.8089 137.374 90.1576 137.529C92.9084 138.556 93.5283 143.38 93.8576 145.917C95.9692 145.046 97.0734 143.108 97.9451 141.229C100.657 141.733 95.388 146.867 93.9932 147.099C94.5163 150.799 93.044 155.565 95.4074 158.567C99.863 162.325 104.396 165.018 109.278 167.963C109.723 165.871 109.258 163.74 108.58 161.783C110.75 160.175 110.634 167.459 110.305 168.563C111.486 169.222 112.494 169.764 113.501 170.287C113.443 170.501 113.404 170.752 113.307 170.869C113.152 170.985 112.997 171.101 112.842 171.198L112.707 171.101Z" fill="white"/>
<path d="M124.795 21.646C109.414 66.2599 128.476 91.7729 113.579 134.353H223.806C202.381 95.2017 223.612 86.7555 207.688 25.7141L124.795 21.646Z" fill="#0B2D50"/>
<path d="M196.975 118.196L167.104 164.011L128.824 121.915C136.554 119.281 147.732 116.162 153.059 115.155H181.4C184.325 115.581 192.171 117.034 196.975 118.196Z" fill="white"/>
<path d="M244.96 226.195L88.9761 228.133C88.9761 228.133 87.3101 153.531 96.3375 139.583C102.091 131.098 123.846 123.31 136.476 119.378L167.123 164.011L195.251 120.85L196.995 118.196H197.014C210.846 120.714 233.065 134.178 238.819 141.985C246.51 152.775 244.96 226.195 244.96 226.195Z" fill="#6D93EA"/>
<path d="M166.271 189.292C166.29 182.976 175.899 182.976 175.918 189.292C175.899 195.607 166.29 195.588 166.271 189.292Z" fill="#D1D3D4"/>
<path d="M166.271 205.447C166.29 199.132 175.899 199.132 175.918 205.447C175.899 211.763 166.29 211.763 166.271 205.447Z" fill="#D1D3D4"/>
<path d="M163.558 189.292C163.578 182.976 173.186 182.976 173.206 189.292C173.186 195.607 163.578 195.588 163.558 189.292Z" fill="white"/>
<path d="M163.558 205.447C163.578 199.132 173.186 199.132 173.206 205.447C173.186 211.763 163.578 211.763 163.558 205.447Z" fill="white"/>
<path d="M209.935 134.352L196.976 118.196L169.099 157.638L136.477 119.378L124.989 134.352L145.504 150.799L137.949 160.698L168.867 176.564L196.976 160.698L189.42 150.799L209.935 134.352Z" fill="#ACA8DC"/>
<path d="M153.059 115.134C149.998 116.529 147.228 117.943 146.744 119.551C149.301 127.319 154.589 133.519 161.893 138.594C165.302 136.327 167.162 133.46 167.762 130.109C168.653 133.364 170.842 136.192 174.31 138.594C181.575 132.55 186.03 125.498 187.677 117.459C183.686 113.565 158.134 115.58 153.059 115.134Z" fill="#ACA8DC"/>
<path d="M181.149 116.084C180.161 131.233 157.244 138.42 153.059 115.135C154.164 109.672 157.496 91.9275 158.522 86.7551L177.41 87.1426L177.526 88.0531L181.149 116.084Z" fill="#F9CBCB"/>
<path d="M181.149 116.083C181.032 118.117 180.509 120.016 179.696 121.701C176.151 108.063 175.143 93.5149 157.05 94.6966L158.541 86.9478L177.429 87.3352L177.545 88.0326L181.149 116.083Z" fill="#EBB0B0"/>
<path d="M135.392 54.906L140.196 70.4618C140.003 70.4424 139.886 70.3843 139.712 70.4424C139.712 70.4424 139.712 70.4424 139.693 70.3649C115.303 69.435 113.463 43.9801 130.162 46.9634C130.782 49.8886 133.358 52.407 135.392 54.906Z" fill="#F9CBCB"/>
<path d="M198.816 72.3033C198.234 72.4583 197.653 72.5164 196.975 72.652C197.053 72.4195 199.745 58.6847 199.881 58.0261C201.566 55.4109 202.98 52.5244 204.162 49.4249C218.652 44.8531 222.236 66.7629 198.816 72.3033Z" fill="#F9CBCB"/>
<path d="M207.727 47.0217C206.1 87.9161 160.168 110.62 135.76 70.0357C100.367 4.94554 203.232 -31.8226 207.727 47.0217Z" fill="#F9D9CB"/>
<path d="M161.273 71.7229C167.239 74.6094 172.043 74.1251 177.874 71.1611C175.085 77.5539 164.45 78.2707 161.273 71.7229Z" fill="#F494A7"/>
<path d="M143.451 59.1308C143.276 56.3799 151.858 56.225 151.8 58.9758C151.955 61.7073 143.392 61.8816 143.451 59.1308Z" fill="#F7AFBD"/>
<path d="M182.951 58.3559C182.776 55.605 191.358 55.4501 191.3 58.2009C191.474 60.9517 182.893 61.1067 182.951 58.3559Z" fill="#F7AFBD"/>
<path d="M142.676 52.3688C143.47 45.7436 156.411 45.2205 157.244 52.0783C153.272 48.7269 146.608 49.1918 142.676 52.3688Z" fill="#7D6959"/>
<path d="M177.487 51.6916C178.282 45.0664 191.222 44.5433 192.055 51.4204C188.084 48.0497 181.42 48.5146 177.487 51.6916Z" fill="#7D6959"/>
<path d="M169.274 1.96362C168.634 1.94424 167.995 2.00236 167.356 2.02173C191.571 3.43589 208.773 30.983 202.749 56.1667L200.095 36.7752L186.554 17.5969L172.896 11.9983H149.96L141.746 24.6289C159.859 17.2288 181.866 20.677 191.3 46.8681C193.954 52.2922 196.782 57.2709 200.502 60.7578C194.186 82.687 181.149 92.1018 165.612 91.5788C181.575 93.1673 196.492 81.5247 203.524 65.504C203.698 65.5234 203.853 65.5234 204.027 65.5234L203.911 64.6322C216.154 38.1119 197.886 1.86676 169.274 1.96362Z" fill="#EBB0B0"/>
<path d="M217.142 191.21H187.541C184.558 191.249 184.558 185.766 187.541 185.824H217.142C220.125 185.766 220.125 191.249 217.142 191.21Z" fill="white"/>
<path d="M141.746 24.6288C139.305 39.4097 133.299 46.3449 133.299 62.5205C133.299 62.5205 117.279 40.0877 124.814 21.6649C130.161 8.54998 146.162 -3.07325 164.798 1.94411C205.441 -9.54352 216.057 32.3776 204.86 62.0943C188.587 48.0496 185.701 1.16923 141.746 24.6288Z" fill="#0B2D50"/>
<path d="M158.328 82.1253C157.069 81.7766 155.771 82.5321 155.403 83.7719C134.345 89.6997 117.395 79.142 122.431 57.8521L119.719 57.1741C113.52 81.4085 135.353 92.993 156.333 86.4065C159.355 88.4987 161.873 83.0939 158.328 82.1253Z" fill="white"/>
<path d="M205.266 49.4049H200.617C207.417 -9.81549 126.345 -9.77674 133.164 49.4049H128.514C121.579 -15.9177 212.221 -15.8789 205.266 49.4049Z" fill="#646A6C"/>
<path d="M205.266 49.4049H200.617C207.417 -9.81549 126.345 -9.77674 133.164 49.4049H128.514C121.579 -15.9177 212.221 -15.8789 205.266 49.4049Z" fill="#646A6C"/>
<path d="M205.266 49.4049H200.617C207.417 -9.81549 126.345 -9.77674 133.164 49.4049H128.514C121.579 -15.9177 212.221 -15.8789 205.266 49.4049Z" fill="white"/>
<path d="M130.839 45.4157C128.514 45.435 126.635 43.4591 126.654 41.2313C126.286 38.1899 127.236 34.5479 130.839 34.5673C134.461 34.5092 135.391 38.2674 135.023 41.2313C135.023 43.5366 133.144 45.4157 130.839 45.4157Z" fill="#D1D2EC"/>
<path d="M132.253 34.8193C133.648 36.0398 133.416 38.4807 133.416 40.1854C133.416 42.4907 131.536 44.3698 129.231 44.3698C128.727 44.3698 128.263 44.2729 127.817 44.1179C130.219 46.83 135.159 44.9316 135.023 41.2315C135.217 38.81 134.965 35.633 132.253 34.8193Z" fill="#CCCCCC"/>
<path d="M202.767 45.4154C206.39 45.4735 207.32 41.7153 206.952 38.7514C206.952 36.4461 205.073 34.567 202.767 34.567C200.443 34.5477 198.564 36.5236 198.583 38.7514C198.196 41.8122 199.145 45.4348 202.767 45.4154Z" fill="#D1D2EC"/>
<path d="M201.353 34.8191C199.959 36.0395 200.191 38.4804 200.191 40.1852C200.191 42.4904 202.07 44.3695 204.375 44.3695C204.879 44.3695 205.344 44.2727 205.79 44.1177C203.387 46.8298 198.448 44.9313 198.583 41.2312C198.389 38.8097 198.641 35.6327 201.353 34.8191Z" fill="#CCCCCC"/>
<path d="M116.523 56.3411C116.039 62.7145 120.998 68.3518 127.449 68.3131V45.4153C121.405 45.4153 116.523 50.3164 116.523 56.3411Z" fill="#ACA8DC"/>
<path d="M130.257 41.3077C125.918 41.2108 122.373 45.1433 122.489 49.0759C122.489 49.5408 122.489 66.1814 122.489 66.2976C122.567 70.5207 126.015 73.9302 130.257 73.9302C134.539 73.9302 138.026 70.4626 138.026 66.162V49.0565C138.026 44.7946 134.558 41.3077 130.257 41.3077Z" fill="#756EC4"/>
<path d="M206.777 44.9695V67.8673C221.229 67.8673 221.229 44.9889 206.777 44.9695Z" fill="#ACA8DC"/>
<path d="M203.949 40.8623C199.668 40.8623 196.181 44.3299 196.181 48.6305V65.736C196.181 70.0173 199.649 73.5042 203.949 73.5042C208.23 73.5042 211.717 70.0366 211.717 65.736V48.6305C211.717 44.3493 208.25 40.8623 203.949 40.8623Z" fill="#756EC4"/>
<path d="M157.011 81.4657C158.812 74.8405 168.886 77.5526 167.142 84.1778C165.341 90.8031 155.267 88.091 157.011 81.4657Z" fill="#7072BA"/>
<path d="M159.277 79.9352C159.277 79.5477 159.897 79.5477 159.878 79.9352C159.897 80.342 159.277 80.342 159.277 79.9352ZM160.847 79.4315C161.234 79.4315 161.234 78.8116 160.847 78.831C160.459 78.8116 160.459 79.4315 160.847 79.4315ZM162.629 79.2765C163.016 79.2765 163.016 78.6566 162.629 78.676C162.241 78.676 162.241 79.2959 162.629 79.2765ZM163.869 79.8383C164.256 79.8383 164.256 79.2184 163.869 79.2378C163.481 79.2184 163.481 79.8383 163.869 79.8383ZM163.559 80.8457C163.946 80.8457 163.946 80.2257 163.559 80.2451C163.171 80.2451 163.171 80.865 163.559 80.8457ZM165.012 80.9619C165.399 80.9619 165.399 80.342 165.012 80.3613C164.605 80.342 164.605 80.9619 165.012 80.9619ZM165.244 82.2986C165.631 82.2986 165.631 81.6787 165.244 81.698C164.837 81.6787 164.837 82.2986 165.244 82.2986ZM165.612 83.6546C166 83.6546 166 83.0347 165.612 83.0541C165.225 83.0347 165.225 83.6546 165.612 83.6546ZM164.334 83.4609C164.721 83.4609 164.721 82.841 164.334 82.8604C163.927 82.8604 163.927 83.4803 164.334 83.4609ZM165.012 85.0107C165.399 85.0107 165.399 84.3907 165.012 84.4101C164.605 84.4101 164.605 85.03 165.012 85.0107ZM163.636 85.6306C164.024 85.6306 164.024 85.0107 163.636 85.03C163.229 85.0107 163.229 85.6306 163.636 85.6306ZM162.203 86.4829C162.59 86.4829 162.59 85.863 162.203 85.8824C161.796 85.863 161.796 86.4829 162.203 86.4829ZM160.847 85.2625C160.459 85.2625 160.459 85.8824 160.847 85.863C161.234 85.8824 161.234 85.2431 160.847 85.2625ZM159.336 85.3206C159.723 85.3206 159.723 84.7007 159.336 84.7201C158.929 84.7007 158.929 85.3206 159.336 85.3206ZM163.559 82.1242C163.946 82.1242 163.946 81.5043 163.559 81.5237C163.171 81.5043 163.171 82.1242 163.559 82.1242ZM162.261 82.9378C162.648 82.9378 162.648 82.3179 162.261 82.3373C161.854 82.3373 161.854 82.9572 162.261 82.9378ZM160.924 83.6159C161.312 83.6159 161.312 82.996 160.924 83.0153C160.537 82.996 160.537 83.6159 160.924 83.6159ZM158.793 83.6546C159.181 83.6546 159.181 83.0347 158.793 83.0541C158.406 83.0347 158.406 83.6546 158.793 83.6546ZM160.11 84.4101C160.498 84.4101 160.498 83.7902 160.11 83.8096C159.723 83.7902 159.723 84.4101 160.11 84.4101ZM161.835 84.8169C162.222 84.8169 162.222 84.197 161.835 84.2164C161.447 84.197 161.447 84.8169 161.835 84.8169ZM163.268 84.1389C163.656 84.1389 163.656 83.519 163.268 83.5384C162.861 83.519 162.861 84.1389 163.268 84.1389ZM162.454 81.5624C162.842 81.5624 162.842 80.9425 162.454 80.9619C162.048 80.9619 162.048 81.5818 162.454 81.5624ZM162.009 80.2451C162.396 80.2451 162.396 79.6252 162.009 79.6446C161.602 79.6252 161.602 80.2451 162.009 80.2451ZM160.42 81.0587C160.808 81.0587 160.808 80.4388 160.42 80.4582C160.033 80.4388 160.033 81.0587 160.42 81.0587ZM161.157 82.1823C161.544 82.1823 161.544 81.5624 161.157 81.5818C160.75 81.5624 160.75 82.1823 161.157 82.1823ZM159.723 82.8604C160.11 82.8604 160.11 82.2404 159.723 82.2598C159.316 82.2404 159.316 82.8604 159.723 82.8604ZM159.103 81.5624C159.491 81.5624 159.491 80.9425 159.103 80.9619C158.716 80.9619 158.716 81.5818 159.103 81.5624Z" fill="#CCCCCC"/>
<path d="M222.547 230H107.399C104.106 230 101.452 227.327 101.452 224.053V154.236C101.452 150.943 104.125 148.289 107.399 148.289H222.547C225.84 148.289 228.494 150.962 228.494 154.236V224.033C228.494 227.327 225.821 230 222.547 230Z" fill="white"/>
<path opacity="0.3" d="M214.042 148.27C209.954 219.83 156.197 221.128 101.432 218.319C101.703 221.845 100.057 230.078 105.713 229.981H224.193C226.556 229.981 228.474 227.87 228.474 225.254V152.997C228.552 145.887 218.226 148.851 214.042 148.27Z" fill="#ACA8DC"/>
<path d="M158.425 193.212C158.464 184.727 171.482 184.727 171.521 193.212C171.482 201.697 158.464 201.697 158.425 193.212Z" fill="#CDCEE7"/>
<path d="M243.772 31.695C263.822 3.29553 306.557 32.3924 287.495 61.4505C267.445 89.8499 224.71 60.7531 243.772 31.695Z" fill="#E49794"/>
<path d="M261.691 47.8508C261.497 47.754 261.323 47.6377 261.149 47.5215C261.342 47.599 261.536 47.7152 261.691 47.8508Z" fill="white"/>
<path d="M264.016 48.4907C272.927 48.452 272.927 34.8915 264.016 34.8528C255.086 34.8915 255.105 48.452 264.016 48.4907Z" fill="white"/>
<path d="M257.681 46.9788C257.739 47.0562 257.797 47.1337 257.856 47.1919C257.546 47.3275 257.197 47.4243 256.868 47.5018C257.119 47.2887 257.391 47.1144 257.681 46.9788Z" fill="white"/>
<path d="M271.183 47.1725C271.067 47.1144 270.951 47.0756 270.815 47.0175C270.835 46.9981 270.835 46.9981 270.854 46.9788C270.97 47.0175 271.087 47.095 271.183 47.1725Z" fill="white"/>
<path d="M270.254 48.5284C267.755 47.3274 265.353 52.6547 259.89 48.6447C257.313 47.4242 255.841 51.3955 255.822 53.7589C255.725 54.96 256.674 56.0254 257.894 56.0254H270.641C274.496 55.5605 272.268 49.7489 270.254 48.5284Z" fill="white"/>
<path d="M280.618 40.8782C280.734 45.818 275.174 49.2469 270.816 47.0191C273.683 43.7646 273.179 38.0305 269.866 35.3378C274.128 32.1026 280.792 35.4734 280.618 40.8782Z" fill="white"/>
<path d="M282.516 52.9844C282.613 54.1855 281.664 55.251 280.443 55.251H274.128C274.729 53.275 274.128 50.8729 273.121 49.265C276.123 50.098 278.215 46.6304 280.056 47.754C281.567 48.9357 282.516 50.6791 282.516 52.9844Z" fill="white"/>
<path d="M255.802 41.6703C255.802 43.7819 256.577 45.6997 257.875 47.2107C244.45 50.7946 246.368 29.2528 258.941 35.1226C257.023 36.653 255.802 39.0164 255.802 41.6703Z" fill="white"/>
<path d="M254.175 53.7784C254.156 54.2821 254.233 54.8052 254.408 55.2701C252.548 54.9601 246.794 56.4518 247.124 53.0036C247.124 50.7952 247.957 49.0904 249.332 47.9087C251.269 46.7658 252.993 49.8265 255.357 49.3229C254.582 50.6014 254.175 52.0931 254.175 53.7784Z" fill="white"/>
<path d="M261.691 47.8511C261.497 47.7542 261.323 47.638 261.149 47.5217C261.342 47.5992 261.536 47.7155 261.691 47.8511Z" fill="white"/>
<path d="M36.3618 50.726C56.4119 22.3265 99.1467 51.4234 80.0846 80.4815C60.0345 108.881 17.2803 79.7841 36.3618 50.726Z" fill="#E49794"/>
<path d="M52.0141 54.1352C43.9165 53.9028 38.6086 63.5694 42.9867 70.2721C41.6306 71.2795 41.1076 73.5266 40.6233 75.8707C42.638 74.8246 44.8464 74.2047 47.3067 74.224C63.2886 80.9268 69.3327 55.2007 52.0141 54.1352Z" fill="white"/>
<path d="M73.5943 68.8391C68.4026 65.5652 68.2282 67.2893 63.4434 68.2192C65.768 61.0321 60.3245 53.1671 52.8275 52.799C59.7045 40.2072 78.5342 50.7456 71.2503 63.2406C72.8194 64.1898 73.3812 66.3013 73.5943 68.8391Z" fill="white"/>
<path d="M46.5125 64.5567C46.5125 63.0263 48.8565 63.0263 48.8759 64.5567C48.8565 66.1065 46.5125 66.1065 46.5125 64.5567Z" fill="#A1A2D4"/>
<path d="M50.4451 64.5567C50.4451 63.0263 52.7891 63.0263 52.8085 64.5567C52.7891 66.1065 50.4451 66.1065 50.4451 64.5567Z" fill="#A1A2D4"/>
<path d="M54.3771 64.5567C54.3771 63.0263 56.7211 63.0263 56.7405 64.5567C56.7211 66.1065 54.3771 66.1065 54.3771 64.5567Z" fill="#A1A2D4"/>
<path d="M287.136 103.562C303.021 81.0707 336.864 104.104 321.773 127.137C305.888 149.628 272.045 126.595 287.136 103.562Z" fill="#A1A2D4"/>
<path d="M316 114.081C315.981 112.977 317.724 112.977 317.705 114.081C317.724 115.205 315.981 115.205 316 114.081Z" fill="white"/>
<path d="M290.913 114.256C290.894 113.151 292.638 113.151 292.618 114.256C292.657 115.36 290.913 115.36 290.913 114.256Z" fill="white"/>
<path d="M303.679 126.15C303.66 125.046 305.403 125.046 305.384 126.15C305.403 127.274 303.66 127.274 303.679 126.15Z" fill="white"/>
<path d="M310.324 104.008C310.305 103.368 311.331 103.368 311.312 104.008C311.331 104.647 310.324 104.647 310.324 104.008Z" fill="white"/>
<path d="M315.013 108.637C315.013 107.998 316.02 107.998 316 108.637C316.02 109.277 315.013 109.277 315.013 108.637Z" fill="white"/>
<path d="M310.169 124.639C310.169 124 311.176 124 311.157 124.639C311.157 125.278 310.15 125.278 310.169 124.639Z" fill="white"/>
<path d="M297.519 124.329C297.519 123.69 298.527 123.69 298.507 124.329C298.527 124.968 297.519 124.968 297.519 124.329Z" fill="white"/>
<path d="M293.141 119.524C293.122 118.885 294.148 118.885 294.129 119.524C294.148 120.183 293.141 120.183 293.141 119.524Z" fill="white"/>
<path d="M293.257 108.134C293.257 107.495 294.265 107.495 294.245 108.134C294.265 108.793 293.257 108.793 293.257 108.134Z" fill="white"/>
<path d="M297.654 103.737C297.654 103.098 298.662 103.098 298.642 103.737C298.662 104.377 297.654 104.377 297.654 103.737Z" fill="white"/>
<path d="M303.873 101.761C303.854 100.657 305.597 100.657 305.578 101.761C305.597 102.885 303.854 102.885 303.873 101.761Z" fill="white"/>
<path d="M303.834 118.285H297.112C297.035 115.709 300.774 114.663 301.549 112.513C301.432 111.156 299.456 111.428 299.534 112.842L297.287 112.667C298.158 107.166 309.239 111.001 300.347 116.464H303.834V118.285Z" fill="white"/>
<path d="M308.638 116.793H304.57V114.953L308.638 110.11H310.595V115.05H311.602V116.793H310.595V118.304H308.638V116.793ZM308.638 115.05V112.512L306.488 115.05H308.638Z" fill="white"/>
<path d="M313.791 122.643C318.731 125.607 319.332 126.944 318.363 120.163C318.092 118.284 314.605 121.151 313.85 121.287C313.307 121.558 313.268 122.314 313.791 122.643Z" fill="white"/>
<path d="M316.872 123.651C316.562 124.058 316.232 124.445 315.884 124.833L314.373 123.806C314.741 123.418 315.07 122.992 315.399 122.566C316.077 121.598 317.588 122.721 316.872 123.651Z" fill="white"/>
<path d="M313.869 124.328L315.38 125.355C315.167 125.568 314.935 125.781 314.702 125.994L313.172 124.967C313.424 124.754 313.656 124.541 313.869 124.328Z" fill="white"/>
<path d="M319.197 114.39C319.197 114.661 318.79 114.661 318.771 114.39C318.925 105.615 310.092 98.4276 301.549 100.404C279.523 106.021 293.645 138.295 312.61 125.413L314.141 126.459C302.75 136.184 284.598 123.786 289.809 109.625C295.505 93.5652 319.003 97.2846 319.197 114.39Z" fill="white"/>
<ellipse cx="165.5" cy="230" rx="114.5" ry="5" fill="#E6E5F5"/>
</svg>
