<svg width="44" height="44" viewBox="0 0 44 44" fill="none" xmlns="http://www.w3.org/2000/svg">
<rect width="44" height="44" rx="22" fill="#E1EBFF"/>
<path d="M24.6726 26.5032L26.3093 24.8664C26.5298 24.6487 26.8087 24.4997 27.1122 24.4374C27.4157 24.3752 27.7308 24.4024 28.0191 24.5157L30.0139 25.3121C30.3053 25.4304 30.5552 25.6323 30.732 25.8924C30.9089 26.1525 31.0048 26.459 31.0077 26.7735V30.427C31.006 30.6409 30.961 30.8523 30.8755 31.0484C30.7899 31.2445 30.6656 31.4212 30.5099 31.568C30.3543 31.7148 30.1705 31.8285 29.9698 31.9024C29.769 31.9763 29.5553 32.0088 29.3417 31.998C15.3636 31.1284 12.5431 19.2913 12.0097 14.761C11.985 14.5385 12.0076 14.3133 12.0761 14.1002C12.1446 13.8871 12.2575 13.691 12.4073 13.5246C12.5571 13.3583 12.7404 13.2255 12.9451 13.1351C13.1499 13.0447 13.3715 12.9987 13.5953 13H17.1246C17.4395 13.001 17.7469 13.0961 18.0074 13.2732C18.2678 13.4503 18.4693 13.7012 18.5859 13.9938L19.3824 15.9886C19.4995 16.2758 19.5294 16.5911 19.4683 16.8952C19.4072 17.1993 19.2579 17.4786 19.039 17.6984L17.4022 19.3351C17.4022 19.3351 18.3448 25.714 24.6726 26.5032Z" fill="#4880FF"/>
</svg>
